<svg id="svg" version="1.1" xmlns="http://www.w3.org/2000/svg" xmlns:xlink="http://www.w3.org/1999/xlink" width="400" height="119.0775681341719" viewBox="0, 0, 400,119.0775681341719"><g id="svgg"><path id="path0" d="M4.375 45.042 L 4.417 84.917 43.963 84.959 C 75.514 84.992,83.526 84.958,83.589 84.792 C 83.632 84.677,83.686 66.715,83.708 44.875 L 83.750 5.167 44.041 5.167 L 4.333 5.167 4.375 45.042 M82.967 6.200 C 83.121 6.354,83.167 15.262,83.167 45.279 L 83.167 84.159 82.778 84.414 C 82.220 84.779,5.716 84.720,5.276 84.355 C 4.836 83.990,4.852 6.436,5.292 6.180 C 5.744 5.916,82.703 5.936,82.967 6.200 M41.081 11.229 C 40.952 11.538,40.685 12.419,40.487 13.187 C 39.934 15.332,39.419 16.000,38.319 16.000 C 37.921 16.000,37.408 16.132,34.940 16.868 C 32.899 17.478,32.878 17.471,30.909 15.493 C 29.080 13.655,29.279 13.674,26.725 15.091 C 24.120 16.536,24.191 16.393,24.822 18.955 C 25.110 20.126,25.378 21.232,25.418 21.415 C 25.471 21.660,25.067 22.165,23.870 23.355 C 22.979 24.239,21.924 25.309,21.527 25.732 C 21.129 26.154,20.679 26.508,20.527 26.518 C 19.850 26.561,19.152 26.446,17.801 26.070 C 15.313 25.378,15.371 25.340,13.441 28.859 C 12.582 30.425,12.590 30.451,14.500 32.417 C 16.390 34.361,16.329 34.161,15.680 36.307 C 15.412 37.192,15.104 38.329,14.995 38.833 C 14.505 41.093,14.542 41.059,11.713 41.847 C 9.417 42.487,9.500 42.354,9.500 45.417 C 9.500 48.353,9.488 48.325,11.000 48.748 C 14.568 49.745,14.509 49.702,14.906 51.583 C 15.061 52.317,15.408 53.641,15.677 54.526 C 16.326 56.660,16.394 56.437,14.500 58.409 C 12.430 60.564,12.431 60.319,14.464 63.714 C 15.434 65.335,15.470 65.344,18.178 64.651 C 20.131 64.151,20.381 64.121,20.714 64.340 C 21.457 64.830,25.351 68.959,25.360 69.266 C 25.371 69.642,24.938 71.593,24.485 73.210 C 24.203 74.218,24.265 74.285,26.824 75.745 C 29.232 77.119,29.049 77.143,31.083 75.167 C 32.916 73.386,32.990 73.353,34.265 73.762 C 34.715 73.907,36.052 74.266,37.237 74.560 C 39.795 75.197,39.842 75.240,40.448 77.520 C 40.677 78.380,40.966 79.327,41.090 79.625 L 41.316 80.167 44.078 80.167 L 46.839 80.167 47.070 79.625 C 47.197 79.327,47.380 78.783,47.476 78.417 C 48.319 75.199,48.359 75.150,50.417 74.695 C 51.242 74.513,52.554 74.167,53.333 73.926 C 55.144 73.367,55.237 73.398,57.026 75.132 C 59.024 77.069,58.909 77.034,60.521 76.196 C 64.014 74.380,63.961 74.470,63.242 71.564 C 62.566 68.831,62.352 69.362,65.335 66.375 C 67.825 63.882,67.510 63.996,70.057 64.667 C 72.924 65.421,72.890 65.441,74.719 61.892 C 75.538 60.305,75.568 60.404,73.667 58.425 C 71.842 56.526,71.844 56.531,72.340 54.980 C 72.721 53.788,73.245 51.734,73.406 50.799 C 73.555 49.935,73.983 49.667,76.262 49.012 C 78.769 48.292,78.655 48.464,78.661 45.407 C 78.668 42.360,78.745 42.487,76.500 41.857 C 73.514 41.018,73.626 41.108,73.248 39.243 C 73.101 38.514,72.748 37.175,72.466 36.268 C 71.834 34.241,71.812 34.309,73.792 32.257 C 75.685 30.296,75.680 30.222,73.466 26.715 L 72.785 25.638 72.018 25.716 C 71.595 25.760,70.500 25.989,69.583 26.227 C 68.667 26.465,67.790 26.620,67.635 26.572 C 67.384 26.493,63.092 22.252,62.823 21.816 C 62.699 21.616,62.821 20.930,63.394 18.596 C 63.927 16.430,63.953 16.468,60.742 14.732 C 58.960 13.768,59.007 13.757,57.083 15.586 C 55.105 17.468,55.117 17.464,53.417 16.922 C 52.021 16.477,50.497 16.091,49.485 15.926 C 48.819 15.817,48.256 15.299,48.118 14.667 C 48.068 14.438,47.904 13.838,47.752 13.333 C 47.601 12.829,47.403 12.120,47.313 11.757 C 47.040 10.655,47.075 10.667,44.054 10.667 L 41.316 10.667 41.081 11.229 M47.083 19.670 C 50.108 20.007,51.928 20.542,55.202 22.057 C 67.871 27.920,73.352 43.940,67.074 56.759 C 60.010 71.185,41.633 75.695,28.780 66.157 C 15.999 56.672,14.685 38.036,26.008 26.833 C 29.058 23.815,32.495 21.824,37.167 20.369 C 39.558 19.625,43.918 19.317,47.083 19.670 M40.417 20.833 C 40.233 20.912,39.865 20.982,39.598 20.988 C 38.518 21.014,35.160 22.149,33.112 23.180 C 30.878 24.305,29.718 25.112,27.024 27.414 C 19.607 33.751,17.300 47.141,22.030 56.396 C 28.104 68.279,42.056 73.278,54.066 67.876 C 66.068 62.478,71.957 47.568,66.722 35.833 C 63.069 27.642,56.442 22.411,47.740 20.848 C 46.557 20.636,40.903 20.624,40.417 20.833 M48.417 23.667 C 55.773 25.557,61.013 29.754,63.917 36.083 C 67.333 43.527,66.260 52.825,61.286 58.875 C 60.395 59.959,60.445 59.983,57.639 57.125 C 56.266 55.727,50.893 50.300,45.697 45.066 C 40.501 39.831,36.175 35.468,36.083 35.370 C 35.992 35.271,34.558 33.854,32.898 32.220 C 29.523 28.899,29.488 28.849,30.131 28.241 C 32.393 26.099,36.817 24.141,41.000 23.430 C 41.895 23.278,47.614 23.460,48.417 23.667 M30.640 33.848 C 32.167 35.415,39.023 42.304,45.875 49.157 C 52.727 56.010,58.333 61.688,58.333 61.776 C 58.333 62.546,54.108 65.169,51.309 66.138 C 33.824 72.186,17.430 55.639,23.352 37.920 C 24.285 35.130,26.829 31.000,27.616 31.000 C 27.752 31.000,29.113 32.282,30.640 33.848 " stroke="none" fill="#424242" fill-rule="evenodd"></path><path id="path1" d="M4.278 5.111 C 4.037 5.352,4.151 84.946,4.392 85.147 C 4.559 85.284,15.076 85.323,44.184 85.292 L 83.750 85.250 83.751 45.417 L 83.751 5.583 83.667 45.250 L 83.583 84.917 44.000 84.917 L 4.417 84.917 4.375 45.042 L 4.333 5.167 44.125 5.125 L 83.917 5.083 44.153 5.041 C 22.283 5.019,4.339 5.050,4.278 5.111 M5.292 6.180 C 4.852 6.436,4.836 83.990,5.276 84.355 C 5.716 84.720,82.220 84.779,82.778 84.414 L 83.167 84.159 83.167 45.279 C 83.167 15.262,83.121 6.354,82.967 6.200 C 82.703 5.936,5.744 5.916,5.292 6.180 M82.833 45.232 C 82.833 80.549,82.809 84.140,82.570 84.232 C 82.226 84.364,6.200 84.360,5.708 84.228 L 5.333 84.128 5.333 45.342 C 5.333 24.009,5.383 6.506,5.444 6.444 C 5.506 6.383,22.943 6.333,44.194 6.333 L 82.833 6.333 82.833 45.232 M40.995 10.842 C 40.895 11.030,40.589 11.977,40.317 12.947 C 39.584 15.558,39.640 15.496,37.647 15.911 C 36.970 16.051,35.716 16.391,34.861 16.665 C 32.985 17.265,33.110 17.309,31.083 15.338 C 29.060 13.369,29.136 13.369,25.872 15.370 C 24.014 16.510,24.038 16.442,24.654 18.918 C 25.380 21.834,25.509 21.457,22.876 24.091 C 20.240 26.727,20.608 26.601,17.759 25.836 C 15.441 25.213,15.367 25.229,14.525 26.563 C 12.125 30.364,12.127 30.232,14.432 32.654 C 16.043 34.347,16.059 34.397,15.524 36.020 C 15.331 36.605,14.991 37.862,14.768 38.813 C 14.266 40.949,14.347 40.873,11.827 41.598 C 9.087 42.387,9.318 42.023,9.371 45.470 L 9.417 48.392 10.167 48.678 C 10.579 48.835,11.404 49.092,12.000 49.249 C 14.231 49.837,14.284 49.879,14.599 51.314 C 14.753 52.012,15.101 53.333,15.373 54.250 C 16.067 56.585,16.099 56.458,14.379 58.218 C 12.163 60.486,12.169 60.733,14.526 64.204 C 15.505 65.646,15.355 65.620,18.221 64.843 C 20.527 64.217,20.322 64.135,22.900 66.730 C 24.841 68.684,25.168 69.090,25.178 69.548 C 25.188 69.986,25.214 70.023,25.322 69.750 C 25.395 69.567,25.408 69.290,25.352 69.135 C 25.172 68.637,20.642 64.167,20.318 64.167 C 20.148 64.167,19.155 64.392,18.110 64.667 C 15.266 65.415,15.465 65.503,13.943 62.836 C 12.510 60.325,12.488 60.503,14.481 58.429 C 16.396 56.435,16.326 56.661,15.677 54.526 C 15.408 53.641,15.061 52.317,14.906 51.583 C 14.509 49.702,14.568 49.745,11.000 48.748 C 9.488 48.325,9.500 48.353,9.500 45.417 C 9.500 42.354,9.417 42.487,11.713 41.847 C 14.542 41.059,14.505 41.093,14.995 38.833 C 15.104 38.329,15.412 37.192,15.680 36.307 C 16.329 34.161,16.390 34.361,14.500 32.417 C 12.590 30.451,12.582 30.425,13.441 28.859 C 15.371 25.340,15.313 25.378,17.801 26.070 C 19.152 26.446,19.850 26.561,20.527 26.518 C 20.679 26.508,21.129 26.154,21.527 25.732 C 21.924 25.309,22.979 24.239,23.870 23.355 C 25.067 22.165,25.471 21.660,25.418 21.415 C 25.378 21.232,25.110 20.126,24.822 18.955 C 24.191 16.393,24.120 16.536,26.725 15.091 C 29.279 13.674,29.080 13.655,30.909 15.493 C 32.880 17.473,32.899 17.479,34.940 16.862 C 36.418 16.415,37.253 16.206,38.723 15.914 C 39.384 15.782,39.940 15.168,40.172 14.312 C 40.281 13.911,40.568 12.946,40.810 12.167 L 41.250 10.750 43.978 10.704 C 46.943 10.654,47.080 10.690,47.250 11.553 C 47.307 11.845,47.421 12.271,47.503 12.500 C 47.584 12.729,47.735 13.243,47.836 13.642 C 47.938 14.041,48.058 14.331,48.103 14.286 C 48.192 14.197,47.382 11.255,47.140 10.792 C 46.887 10.307,41.257 10.353,40.995 10.842 M57.181 15.233 C 55.073 17.290,55.156 17.255,53.557 16.746 C 52.838 16.517,51.762 16.215,51.167 16.074 C 48.729 15.499,48.703 15.488,48.432 14.940 C 48.226 14.522,48.173 14.486,48.170 14.763 C 48.164 15.317,48.859 15.827,49.849 15.996 C 50.879 16.171,52.106 16.493,53.667 16.997 C 55.087 17.456,55.140 17.435,57.083 15.586 C 59.007 13.757,58.960 13.768,60.742 14.732 C 63.953 16.468,63.927 16.430,63.394 18.596 C 62.821 20.930,62.699 21.616,62.823 21.816 C 63.092 22.252,67.384 26.493,67.635 26.572 C 67.790 26.620,68.667 26.465,69.583 26.227 C 70.500 25.989,71.595 25.760,72.018 25.716 L 72.785 25.638 73.466 26.715 C 75.680 30.222,75.684 30.294,73.792 32.264 C 72.033 34.094,71.952 34.208,72.050 34.713 C 72.113 35.038,72.124 35.030,72.144 34.644 C 72.160 34.331,72.642 33.710,73.827 32.477 C 75.011 31.246,75.489 30.630,75.493 30.333 C 75.500 29.831,73.831 26.746,73.087 25.885 L 72.555 25.270 70.199 25.885 C 68.904 26.223,67.809 26.500,67.767 26.500 C 67.475 26.500,63.000 21.743,63.000 21.432 C 63.000 21.231,63.229 20.146,63.508 19.022 C 64.125 16.540,64.129 16.555,62.534 15.534 C 59.112 13.344,59.117 13.344,57.181 15.233 M42.875 19.624 C 43.494 19.656,44.506 19.656,45.125 19.624 C 45.744 19.592,45.237 19.565,44.000 19.565 C 42.762 19.565,42.256 19.592,42.875 19.624 M39.801 19.755 C 39.752 19.803,39.384 19.914,38.981 20.001 L 38.250 20.158 39.083 20.059 C 39.542 20.004,40.254 19.903,40.667 19.835 L 41.417 19.711 40.653 19.689 C 40.233 19.677,39.849 19.706,39.801 19.755 M47.333 19.823 C 48.767 20.083,49.872 20.187,49.083 19.989 C 48.717 19.896,48.004 19.791,47.500 19.754 C 46.601 19.688,46.598 19.690,47.333 19.823 M37.083 20.374 C 36.151 20.695,35.415 21.014,35.833 20.916 C 36.745 20.702,38.074 20.315,38.146 20.243 C 38.277 20.111,37.606 20.194,37.083 20.374 M49.854 20.243 C 49.926 20.315,51.255 20.702,52.167 20.916 C 52.640 21.027,51.721 20.645,50.822 20.357 C 50.217 20.164,49.715 20.104,49.854 20.243 M44.167 20.686 C 46.046 20.753,47.883 20.848,48.250 20.898 C 48.617 20.948,48.467 20.882,47.917 20.752 C 47.214 20.585,45.999 20.522,43.833 20.540 L 40.750 20.565 44.167 20.686 M39.583 20.833 L 39.083 20.961 39.583 20.969 C 39.858 20.973,40.233 20.912,40.417 20.833 L 40.750 20.690 40.417 20.698 C 40.233 20.703,39.858 20.763,39.583 20.833 M34.667 21.162 C 34.529 21.240,33.554 21.721,32.500 22.230 C 15.389 30.496,13.340 54.710,28.782 66.157 C 30.379 67.341,33.590 69.174,34.045 69.161 C 34.158 69.158,33.612 68.833,32.833 68.440 C 17.079 60.483,13.585 39.677,25.915 27.234 C 28.605 24.519,30.325 23.373,34.833 21.291 C 35.154 21.143,35.304 21.021,35.167 21.020 C 35.029 21.020,34.804 21.084,34.667 21.162 M36.500 21.588 C 24.369 25.549,17.181 37.922,19.754 50.417 C 20.090 52.046,20.972 54.797,21.206 54.941 C 21.304 55.001,21.336 54.947,21.283 54.815 C 17.540 45.585,20.109 33.322,27.024 27.414 C 30.494 24.449,33.026 22.910,36.011 21.953 C 36.784 21.705,37.754 21.395,38.167 21.264 C 38.579 21.133,38.767 21.024,38.583 21.021 C 38.400 21.019,37.462 21.273,36.500 21.588 M49.833 21.268 C 50.246 21.401,51.183 21.701,51.917 21.935 C 57.597 23.744,63.112 28.542,65.880 34.083 C 66.896 36.119,67.809 38.546,67.846 39.313 C 67.856 39.506,67.885 39.520,67.948 39.361 C 68.038 39.136,67.610 37.489,67.324 36.961 C 67.237 36.801,67.167 36.591,67.167 36.493 C 67.167 35.181,63.905 30.199,61.436 27.738 C 58.100 24.414,51.788 20.898,49.362 21.013 C 49.209 21.020,49.421 21.135,49.833 21.268 M53.417 21.391 C 65.568 26.610,71.802 38.943,68.720 51.667 C 68.269 53.527,67.202 56.342,66.556 57.372 C 66.342 57.714,66.167 58.038,66.167 58.093 C 66.167 58.312,64.388 60.829,63.359 62.066 C 60.725 65.232,56.405 68.227,52.610 69.519 C 51.983 69.732,51.553 69.934,51.653 69.968 C 52.262 70.171,56.500 68.108,58.731 66.523 C 74.750 55.142,72.766 30.155,55.202 22.060 C 54.312 21.650,53.453 21.244,53.294 21.157 C 53.135 21.071,52.910 21.007,52.794 21.017 C 52.678 21.026,52.958 21.194,53.417 21.391 M41.000 23.430 C 36.817 24.141,32.393 26.099,30.131 28.241 C 29.488 28.849,29.523 28.899,32.898 32.220 C 34.558 33.854,35.992 35.271,36.083 35.370 C 36.175 35.468,40.501 39.831,45.697 45.066 C 50.893 50.300,56.266 55.727,57.639 57.125 C 59.011 58.523,60.247 59.667,60.385 59.667 C 60.898 59.667,62.866 56.867,63.856 54.728 C 64.652 53.008,65.446 50.557,65.265 50.376 C 65.223 50.334,65.104 50.626,65.000 51.025 C 64.123 54.396,61.355 59.333,60.342 59.333 C 60.027 59.333,55.000 54.341,55.000 54.028 C 55.000 53.908,55.215 53.497,55.478 53.113 C 55.740 52.730,56.156 52.019,56.401 51.534 C 57.082 50.186,58.248 50.167,58.647 51.499 C 58.977 52.600,60.166 53.042,60.995 52.371 C 61.359 52.076,62.333 49.064,62.333 48.234 C 62.333 46.973,60.791 46.441,59.759 47.347 C 59.156 47.877,58.277 47.921,57.961 47.437 C 57.740 47.100,57.812 43.392,58.043 43.200 C 58.587 42.748,59.152 42.786,59.755 43.315 C 60.745 44.185,62.334 43.664,62.333 42.471 C 62.333 42.021,61.543 39.062,61.303 38.611 C 60.696 37.472,58.667 37.978,58.667 39.268 C 58.667 39.535,58.505 39.742,58.155 39.923 C 57.269 40.381,56.987 40.213,56.212 38.767 C 55.825 38.043,55.393 37.325,55.254 37.171 C 54.621 36.471,55.491 35.460,56.596 35.611 C 58.071 35.813,58.977 34.986,58.512 33.862 C 58.177 33.054,55.624 30.667,55.095 30.667 C 53.933 30.667,53.420 31.361,53.599 32.692 C 53.687 33.345,53.646 33.465,53.186 33.902 L 52.676 34.387 51.783 33.794 C 51.292 33.468,50.503 33.005,50.029 32.765 C 48.894 32.190,48.889 30.667,50.022 30.667 C 51.051 30.667,51.668 29.074,50.958 28.249 C 50.507 27.725,47.374 26.769,46.627 26.928 C 45.407 27.188,45.135 28.883,46.193 29.634 C 46.552 29.889,46.580 30.418,46.263 30.989 C 46.045 31.384,45.980 31.396,43.996 31.411 L 41.953 31.428 41.726 30.886 C 41.416 30.143,41.430 30.070,42.000 29.474 C 42.849 28.585,42.500 27.168,41.373 26.928 C 40.626 26.769,37.493 27.725,37.042 28.249 C 36.332 29.074,36.949 30.667,37.978 30.667 C 39.171 30.667,39.098 32.192,37.875 32.822 C 37.348 33.093,36.585 33.540,36.179 33.814 C 35.252 34.442,35.447 34.562,32.443 31.527 C 29.523 28.577,29.558 28.780,31.727 27.316 C 38.876 22.490,47.184 22.144,54.833 26.354 C 59.152 28.731,63.078 33.555,64.584 38.333 C 65.143 40.107,65.373 40.640,65.232 39.833 C 63.950 32.528,57.037 25.882,48.417 23.667 C 47.614 23.460,41.895 23.278,41.000 23.430 M337.308 29.667 C 335.411 30.148,333.465 32.434,333.193 34.500 C 332.647 38.657,336.491 42.350,340.314 41.341 C 340.645 41.253,341.116 41.141,341.359 41.092 C 342.029 40.955,343.433 39.763,344.075 38.786 C 347.128 34.141,342.778 28.280,337.308 29.667 M316.619 30.542 C 316.366 30.731,316.336 31.550,316.295 39.450 C 316.243 49.548,316.357 48.966,314.695 47.606 C 313.113 46.312,311.162 45.271,309.000 44.566 C 307.437 44.057,302.088 43.887,300.583 44.299 C 298.772 44.795,297.410 45.358,295.667 46.334 C 294.173 47.170,291.633 49.487,290.735 50.833 C 290.521 51.154,290.132 51.717,289.871 52.085 C 289.099 53.172,287.725 56.184,287.592 57.083 C 287.524 57.542,287.357 58.179,287.220 58.500 C 286.626 59.896,286.624 67.424,287.217 68.833 C 287.352 69.154,287.518 69.751,287.585 70.159 C 287.708 70.903,289.095 73.954,289.763 74.946 C 290.196 75.591,291.820 77.647,292.171 77.997 C 292.703 78.525,294.607 80.124,295.167 80.512 C 296.263 81.272,298.677 82.500,299.075 82.500 C 299.215 82.500,299.724 82.660,300.207 82.856 C 301.550 83.402,306.964 83.518,308.417 83.031 C 308.967 82.847,309.732 82.613,310.118 82.510 C 310.504 82.408,311.345 82.026,311.988 81.662 C 312.631 81.298,313.198 81.000,313.249 81.000 C 313.300 81.000,313.842 80.587,314.454 80.083 C 316.051 78.766,316.333 78.928,316.333 81.160 C 316.333 82.044,316.392 82.320,316.597 82.399 C 317.253 82.651,325.303 82.507,325.571 82.238 C 325.998 81.811,325.969 30.890,325.542 30.565 C 325.133 30.255,317.030 30.234,316.619 30.542 M26.829 31.613 C 25.179 33.493,22.613 38.865,22.680 40.301 C 22.694 40.603,22.784 40.367,23.239 38.833 C 23.915 36.559,25.041 34.325,26.537 32.292 C 27.590 30.861,27.316 30.761,30.209 33.625 C 33.105 36.492,33.131 36.528,32.724 37.136 C 32.417 37.595,32.047 38.247,31.431 39.417 C 30.884 40.455,29.333 40.289,29.333 39.191 C 29.333 37.903,27.284 37.514,26.658 38.684 C 26.434 39.102,25.667 42.083,25.667 42.534 C 25.667 43.676,27.283 44.160,28.252 43.309 C 28.822 42.808,28.878 42.794,29.513 42.984 L 30.176 43.183 30.130 45.377 L 30.083 47.571 29.458 47.719 C 28.892 47.853,28.776 47.817,28.244 47.350 C 27.232 46.462,25.667 46.966,25.667 48.180 C 25.667 48.696,26.503 51.716,26.753 52.106 C 27.407 53.122,28.911 52.795,29.305 51.550 C 29.739 50.178,30.896 50.162,31.577 51.518 C 31.818 51.998,32.237 52.719,32.507 53.120 C 33.288 54.277,32.686 55.372,31.456 55.032 C 30.305 54.714,29.333 55.349,29.333 56.418 C 29.333 57.147,32.234 60.000,32.975 60.000 C 34.008 60.000,34.723 58.947,34.355 57.969 C 33.896 56.752,35.034 56.087,36.225 56.878 C 36.711 57.201,37.497 57.662,37.971 57.902 C 39.192 58.521,39.121 59.801,37.852 60.055 C 36.738 60.277,36.299 61.555,37.042 62.416 C 37.812 63.309,41.471 64.010,42.046 63.375 C 42.662 62.694,42.634 61.167,42.004 61.167 C 41.619 61.167,41.462 60.414,41.719 59.800 L 41.965 59.210 43.989 59.210 L 46.014 59.210 46.257 59.680 C 46.581 60.307,46.563 60.603,46.179 60.987 C 44.872 62.295,45.463 63.767,47.234 63.615 C 48.794 63.481,50.521 62.926,50.958 62.417 C 51.752 61.495,51.106 60.000,49.913 60.000 C 48.875 60.000,49.003 58.431,50.088 57.859 C 50.548 57.616,51.325 57.160,51.813 56.847 L 52.701 56.276 55.351 58.940 C 58.588 62.195,58.547 61.859,55.917 63.585 C 48.377 68.533,38.728 68.374,31.502 63.183 C 27.254 60.132,24.267 55.838,22.995 50.954 C 22.881 50.516,22.750 50.195,22.704 50.240 C 22.575 50.369,22.988 51.755,23.680 53.513 C 28.783 66.485,44.725 71.479,56.167 63.690 C 57.368 62.873,58.333 62.019,58.333 61.776 C 58.333 61.688,52.727 56.010,45.875 49.157 C 39.023 42.304,32.167 35.415,30.640 33.848 C 27.596 30.726,27.604 30.731,26.829 31.613 M112.829 32.094 C 112.598 32.702,112.608 81.745,112.839 82.178 C 113.110 82.684,140.223 82.684,140.494 82.178 C 140.857 81.500,140.715 73.715,140.333 73.333 C 140.009 73.009,139.776 73.000,131.542 72.997 C 126.507 72.996,122.982 72.931,122.833 72.837 C 122.440 72.589,122.367 60.157,122.756 59.768 C 122.995 59.529,123.954 59.500,131.673 59.500 C 140.053 59.500,140.327 59.490,140.494 59.178 C 140.599 58.981,140.667 57.313,140.667 54.917 C 140.667 52.520,140.599 50.852,140.494 50.656 C 140.327 50.343,140.053 50.333,131.673 50.333 C 124.032 50.333,122.993 50.303,122.762 50.071 C 122.477 49.786,122.360 41.812,122.635 41.379 C 122.734 41.224,124.831 41.165,131.479 41.129 C 139.885 41.085,140.202 41.072,140.430 40.760 C 140.795 40.261,140.775 32.561,140.407 32.037 L 140.148 31.667 126.570 31.667 L 112.992 31.667 112.829 32.094 M184.857 31.956 C 184.574 32.192,184.471 32.554,184.335 33.782 C 184.242 34.625,184.096 35.497,184.012 35.719 C 183.927 35.942,183.774 36.752,183.671 37.520 C 183.568 38.288,183.344 39.592,183.174 40.417 C 183.004 41.242,182.787 42.479,182.692 43.167 C 182.598 43.854,182.408 45.017,182.271 45.750 C 182.133 46.483,181.941 47.571,181.844 48.167 C 181.288 51.570,181.111 52.556,180.821 53.864 C 180.645 54.660,180.498 55.560,180.497 55.864 C 180.495 56.168,180.381 56.904,180.243 57.500 C 180.106 58.096,179.889 59.308,179.761 60.193 C 179.634 61.079,179.418 62.317,179.281 62.943 C 179.023 64.127,178.588 66.625,178.313 68.500 C 178.226 69.096,178.004 70.333,177.819 71.250 C 177.635 72.167,177.424 73.404,177.349 74.000 C 177.275 74.596,177.092 75.721,176.943 76.500 C 176.202 80.372,176.103 80.971,176.094 81.667 L 176.083 82.417 180.527 82.461 L 184.972 82.505 185.307 82.080 C 185.527 81.799,185.680 81.271,185.753 80.535 C 185.814 79.920,185.975 78.892,186.110 78.250 C 186.245 77.608,186.465 76.333,186.599 75.417 C 186.734 74.500,186.925 73.450,187.025 73.083 C 187.125 72.717,187.300 71.742,187.413 70.917 C 187.526 70.092,187.746 68.742,187.901 67.917 C 188.056 67.092,188.296 65.817,188.434 65.083 C 188.572 64.350,188.793 62.962,188.927 62.000 C 189.060 61.038,189.243 60.025,189.333 59.750 C 189.424 59.475,189.607 58.425,189.741 57.417 C 189.875 56.408,190.061 55.358,190.154 55.083 C 190.248 54.808,190.400 53.960,190.492 53.198 C 190.739 51.164,190.871 51.060,191.539 52.375 C 191.968 53.220,192.171 53.776,192.833 55.917 C 193.221 57.170,193.614 58.342,194.007 59.417 C 194.398 60.485,194.788 61.691,195.093 62.773 C 195.226 63.245,195.446 63.845,195.583 64.107 C 195.719 64.369,195.832 64.713,195.832 64.872 C 195.833 65.030,196.016 65.630,196.239 66.205 C 196.694 67.377,197.068 68.503,197.426 69.773 C 197.559 70.245,197.779 70.845,197.916 71.107 C 198.053 71.369,198.165 71.717,198.166 71.880 C 198.166 72.043,198.354 72.622,198.583 73.167 C 198.813 73.711,199.000 74.290,199.001 74.453 C 199.002 74.616,199.114 74.964,199.251 75.227 C 199.387 75.489,199.607 76.089,199.739 76.560 C 200.003 77.505,200.354 78.544,200.944 80.127 C 201.158 80.701,201.333 81.319,201.333 81.502 C 201.333 82.432,201.658 82.500,206.063 82.500 C 210.383 82.500,210.342 82.508,210.574 81.667 C 210.638 81.438,210.791 81.025,210.915 80.750 C 211.121 80.295,211.411 79.441,212.076 77.333 C 212.612 75.635,213.038 74.388,213.245 73.917 C 213.456 73.435,213.920 72.068,214.404 70.500 C 214.637 69.746,214.960 68.793,215.504 67.250 C 215.931 66.039,216.314 64.887,216.670 63.750 C 217.138 62.250,217.683 60.625,217.844 60.250 C 218.079 59.701,218.835 57.460,219.000 56.824 C 219.084 56.499,219.305 55.899,219.490 55.491 C 219.675 55.083,219.828 54.615,219.830 54.449 C 219.832 54.284,219.977 53.834,220.152 53.449 C 220.327 53.065,220.523 52.465,220.588 52.117 C 220.886 50.526,221.838 52.715,222.089 55.569 C 222.147 56.219,222.295 57.125,222.418 57.583 C 222.542 58.042,222.763 59.242,222.909 60.250 C 223.056 61.258,223.284 62.571,223.418 63.167 C 223.551 63.762,223.662 64.512,223.664 64.833 C 223.667 65.154,223.811 66.017,223.984 66.750 C 224.158 67.483,224.351 68.571,224.414 69.167 C 224.476 69.762,224.630 70.662,224.756 71.167 C 224.881 71.671,225.066 72.758,225.167 73.583 C 225.267 74.408,225.456 75.496,225.585 76.000 C 225.715 76.504,225.895 77.570,225.985 78.368 C 226.076 79.166,226.229 80.123,226.325 80.493 C 226.421 80.864,226.578 81.467,226.673 81.833 L 226.846 82.500 231.236 82.500 C 236.625 82.500,236.204 82.770,235.608 79.702 C 235.365 78.445,235.166 77.189,235.166 76.910 C 235.166 76.631,235.049 75.956,234.906 75.410 C 234.762 74.864,234.541 73.588,234.414 72.575 C 234.287 71.562,234.109 70.538,234.019 70.299 C 233.928 70.060,233.805 69.389,233.746 68.807 C 233.688 68.226,233.458 66.841,233.236 65.731 C 233.015 64.620,232.833 63.483,232.833 63.202 C 232.833 62.922,232.689 62.068,232.513 61.305 C 232.336 60.541,232.144 59.429,232.085 58.833 C 232.026 58.237,231.876 57.375,231.751 56.917 C 231.627 56.458,231.441 55.371,231.339 54.500 C 231.236 53.629,231.046 52.504,230.917 52.000 C 230.788 51.496,230.632 50.558,230.571 49.917 C 230.509 49.275,230.355 48.338,230.228 47.834 C 230.101 47.330,229.918 46.242,229.823 45.417 C 229.727 44.592,229.545 43.542,229.420 43.083 C 229.294 42.625,229.104 41.507,228.998 40.598 C 228.891 39.689,228.737 38.767,228.654 38.549 C 228.571 38.331,228.394 37.349,228.260 36.368 C 227.957 34.137,227.535 32.160,227.303 31.880 C 227.167 31.717,226.118 31.667,222.822 31.667 C 217.833 31.667,217.893 31.648,217.443 33.333 C 217.309 33.837,217.066 34.625,216.904 35.083 C 216.163 37.176,216.004 37.636,215.749 38.417 C 215.599 38.875,215.338 39.700,215.169 40.250 C 214.760 41.579,214.341 42.786,214.041 43.500 C 213.906 43.821,213.698 44.421,213.578 44.833 C 213.297 45.803,212.890 47.036,212.507 48.083 C 212.118 49.146,211.724 50.317,211.329 51.583 C 210.883 53.014,210.496 54.138,210.153 55.000 C 209.989 55.413,209.590 56.575,209.266 57.583 C 208.243 60.774,208.143 61.071,207.897 61.667 C 207.765 61.987,207.550 62.625,207.420 63.083 C 206.265 67.162,205.935 67.037,204.337 61.917 C 203.989 60.799,203.609 59.661,203.170 58.417 C 202.713 57.120,202.344 56.006,202.010 54.917 C 201.651 53.746,201.437 53.130,200.896 51.705 C 200.678 51.130,200.500 50.509,200.500 50.323 C 200.500 50.138,200.359 49.708,200.187 49.368 C 200.015 49.028,199.819 48.487,199.751 48.167 C 199.684 47.846,199.487 47.269,199.314 46.884 C 199.142 46.500,199.000 46.070,199.000 45.929 C 199.000 45.788,198.822 45.203,198.605 44.628 C 198.082 43.243,197.697 42.099,197.411 41.083 C 197.282 40.625,197.107 40.100,197.022 39.917 C 196.799 39.434,196.185 37.555,195.930 36.572 C 195.809 36.107,195.620 35.558,195.510 35.352 C 195.399 35.145,195.207 34.584,195.082 34.105 C 194.957 33.625,194.680 32.899,194.467 32.491 L 194.079 31.750 189.644 31.706 C 185.611 31.665,185.178 31.688,184.857 31.956 M46.217 34.597 C 51.234 35.700,54.833 40.154,54.833 45.258 C 54.833 48.165,53.349 52.072,52.442 51.555 C 51.911 51.252,37.750 36.771,37.750 36.531 C 37.750 35.268,43.401 33.978,46.217 34.597 M72.177 35.216 C 72.171 35.289,72.350 35.926,72.575 36.633 C 72.800 37.339,73.103 38.514,73.250 39.243 C 73.626 41.108,73.514 41.018,76.500 41.857 C 78.745 42.487,78.668 42.360,78.661 45.407 C 78.655 48.465,78.770 48.292,76.254 49.012 C 73.781 49.720,73.582 49.885,73.255 51.500 C 73.116 52.188,72.846 53.275,72.654 53.917 C 72.176 55.522,72.116 55.835,72.398 55.250 C 72.709 54.605,73.103 53.238,73.425 51.684 C 73.816 49.805,73.646 49.952,76.250 49.233 C 78.994 48.475,78.828 48.723,78.831 45.387 C 78.834 41.998,79.202 42.410,75.146 41.255 C 73.937 40.911,73.742 40.674,73.429 39.165 C 73.029 37.242,72.220 34.687,72.177 35.216 M44.727 37.910 C 43.417 38.828,44.293 40.732,45.888 40.433 C 46.969 40.230,47.360 38.937,46.591 38.108 C 46.124 37.603,45.291 37.515,44.727 37.910 M42.917 46.439 C 46.950 50.527,50.273 53.970,50.301 54.090 C 50.375 54.401,49.028 55.142,47.353 55.714 C 38.082 58.878,29.565 48.333,34.561 39.875 C 34.845 39.394,35.192 39.001,35.331 39.003 C 35.470 39.004,38.883 42.350,42.917 46.439 M68.069 40.083 C 70.403 53.100,64.085 64.142,51.583 68.896 C 51.217 69.035,51.035 69.153,51.180 69.158 C 52.072 69.187,56.054 67.237,58.236 65.703 C 63.177 62.228,66.379 57.456,68.156 50.917 C 68.934 48.057,68.921 41.085,68.136 39.833 C 68.026 39.657,68.006 39.732,68.069 40.083 M65.435 41.333 C 65.783 44.658,65.783 46.108,65.431 49.333 L 65.331 50.250 65.592 49.167 C 65.944 47.705,65.942 42.836,65.588 41.417 L 65.339 40.417 65.435 41.333 M22.366 41.640 C 22.082 43.015,22.118 48.012,22.421 49.167 C 22.606 49.869,22.641 49.928,22.573 49.417 C 22.347 47.728,22.307 43.214,22.506 42.046 C 22.756 40.585,22.648 40.272,22.366 41.640 M49.150 42.851 C 48.543 43.502,48.538 44.017,49.134 44.685 C 50.425 46.130,52.483 44.329,51.235 42.846 C 50.634 42.131,49.821 42.133,49.150 42.851 M257.583 44.164 C 256.758 44.226,255.858 44.393,255.583 44.536 C 255.308 44.678,254.746 44.850,254.333 44.918 C 253.677 45.027,252.426 45.542,251.667 46.017 C 251.529 46.103,251.178 46.283,250.886 46.418 C 250.594 46.552,250.105 46.832,249.801 47.039 C 249.275 47.397,248.931 47.689,247.192 49.250 C 245.106 51.123,242.627 55.110,242.075 57.480 C 241.955 57.995,241.734 58.829,241.583 59.333 C 241.186 60.659,241.183 67.007,241.578 68.333 C 241.729 68.837,241.962 69.682,242.097 70.211 C 242.318 71.079,242.769 72.169,243.182 72.833 C 243.268 72.971,243.491 73.419,243.679 73.830 C 244.679 76.014,249.823 81.000,251.077 81.000 C 251.207 81.000,251.354 81.066,251.404 81.146 C 251.700 81.626,254.673 82.642,257.417 83.201 C 258.934 83.510,265.557 83.266,266.833 82.854 C 267.429 82.662,268.029 82.501,268.167 82.496 C 268.304 82.492,268.717 82.344,269.083 82.167 C 269.450 81.990,269.871 81.842,270.018 81.839 C 271.069 81.817,274.638 79.291,276.415 77.311 C 278.164 75.363,278.180 75.300,277.083 74.681 C 276.582 74.398,276.126 74.167,276.070 74.167 C 276.013 74.167,275.243 73.822,274.359 73.400 C 270.021 71.331,270.412 71.390,268.917 72.584 C 268.189 73.165,266.744 73.943,265.380 74.490 C 263.502 75.242,258.275 75.140,256.656 74.319 C 253.008 72.469,251.487 70.724,250.652 67.432 C 250.380 66.360,249.514 66.421,265.657 66.372 C 278.173 66.335,280.494 66.292,280.659 66.092 C 280.931 65.765,280.614 60.146,280.278 59.333 C 280.146 59.012,279.983 58.413,279.918 58.000 C 279.088 52.803,272.207 45.644,267.333 44.907 C 266.921 44.845,266.370 44.685,266.110 44.551 C 265.235 44.104,260.953 43.909,257.583 44.164 M368.254 44.184 C 367.523 44.261,366.729 44.405,366.491 44.504 C 366.252 44.603,365.650 44.785,365.154 44.909 C 363.910 45.220,361.182 46.381,360.599 46.848 C 360.499 46.929,359.873 47.389,359.208 47.872 C 358.544 48.355,357.693 48.975,357.317 49.250 C 356.354 49.956,353.517 53.541,352.898 54.833 C 351.852 57.020,351.684 57.438,351.421 58.500 C 351.273 59.096,351.081 59.846,350.993 60.167 C 350.780 60.944,350.777 66.384,350.988 67.333 C 351.534 69.779,352.699 72.690,353.797 74.349 C 355.656 77.157,358.062 79.422,360.624 80.775 C 361.243 81.102,361.825 81.426,361.917 81.496 C 362.132 81.660,364.359 82.378,366.167 82.867 C 368.235 83.426,375.802 83.445,377.500 82.895 C 378.096 82.702,379.258 82.332,380.083 82.074 C 381.650 81.584,382.936 80.918,385.139 79.457 C 386.210 78.746,388.660 76.145,388.664 75.715 C 388.667 75.292,388.585 75.210,387.314 74.369 C 386.799 74.029,385.834 73.375,385.169 72.917 C 384.504 72.458,383.819 72.002,383.648 71.902 C 383.476 71.802,383.204 71.601,383.043 71.455 C 382.175 70.670,381.466 70.760,380.417 71.788 C 379.623 72.566,377.321 73.910,376.500 74.075 C 376.179 74.139,375.579 74.318,375.167 74.471 C 373.035 75.264,368.586 74.797,365.917 73.500 C 360.067 70.657,358.459 62.370,362.693 56.883 C 363.442 55.912,365.531 54.249,366.218 54.076 C 366.457 54.016,366.739 53.864,366.843 53.738 C 366.948 53.612,367.307 53.463,367.642 53.407 C 367.976 53.351,368.625 53.181,369.083 53.028 C 370.127 52.680,374.528 52.635,375.121 52.966 C 375.324 53.080,375.865 53.245,376.323 53.331 C 377.305 53.518,379.416 54.743,380.535 55.776 C 381.383 56.559,381.924 56.681,382.667 56.258 C 382.896 56.127,383.346 55.878,383.667 55.703 C 383.988 55.529,384.587 55.199,385.000 54.970 C 385.412 54.741,386.350 54.233,387.083 53.841 C 387.817 53.449,388.626 52.926,388.882 52.679 L 389.347 52.230 388.965 51.809 C 388.755 51.578,388.072 50.817,387.446 50.119 C 386.821 49.421,385.895 48.565,385.388 48.217 C 383.019 46.588,381.826 45.895,381.130 45.742 C 380.829 45.676,380.283 45.488,379.917 45.324 C 377.369 44.186,372.634 43.723,368.254 44.184 M334.704 45.093 L 334.333 45.352 334.333 63.644 C 334.333 78.015,334.378 81.997,334.542 82.221 C 334.731 82.479,335.167 82.502,339.250 82.461 L 343.750 82.417 343.793 63.833 C 343.833 46.510,343.817 45.236,343.553 45.042 C 343.092 44.703,335.195 44.748,334.704 45.093 M36.871 45.799 C 36.224 46.297,36.192 47.218,36.800 47.826 C 37.420 48.446,38.131 48.495,38.741 47.958 C 40.144 46.724,38.354 44.658,36.871 45.799 M41.705 50.278 C 40.963 50.577,40.838 51.864,41.487 52.513 C 42.256 53.282,43.253 53.128,43.752 52.163 C 44.364 50.980,43.025 49.747,41.705 50.278 M264.000 52.356 C 264.779 52.549,265.609 52.843,265.843 53.009 C 266.078 53.175,266.467 53.361,266.707 53.421 C 267.909 53.722,270.833 57.217,270.833 58.351 C 270.833 58.971,270.403 59.000,261.102 59.000 C 250.398 59.000,250.444 59.008,251.649 57.333 C 251.814 57.104,252.065 56.692,252.208 56.417 C 252.685 55.499,254.210 54.079,255.250 53.585 C 255.800 53.323,256.362 53.018,256.500 52.906 C 256.711 52.735,258.839 52.195,260.333 51.934 C 261.018 51.814,262.494 51.984,264.000 52.356 M309.500 53.111 C 310.279 53.355,311.096 53.693,311.314 53.861 C 311.533 54.029,311.795 54.167,311.897 54.167 C 312.866 54.171,316.144 58.499,316.161 59.797 C 316.164 60.006,316.290 60.456,316.440 60.797 C 316.830 61.682,316.830 65.651,316.440 66.536 C 316.290 66.877,316.167 67.313,316.167 67.505 C 316.167 68.862,313.141 72.874,311.785 73.315 C 311.674 73.351,311.396 73.508,311.167 73.663 C 307.634 76.054,301.301 74.658,298.458 70.861 C 291.954 62.179,299.543 49.980,309.500 53.111 M21.333 55.298 C 21.333 55.882,23.454 59.383,24.839 61.083 C 27.803 64.724,34.505 69.237,36.830 69.158 C 36.969 69.153,36.783 69.035,36.417 68.896 C 29.664 66.328,25.071 62.354,22.088 56.500 C 21.376 55.102,21.333 55.034,21.333 55.298 M72.025 56.220 C 72.005 56.604,72.306 57.009,73.667 58.425 C 75.568 60.404,75.538 60.305,74.719 61.892 C 72.890 65.441,72.924 65.421,70.057 64.667 C 67.510 63.996,67.825 63.882,65.335 66.375 C 62.352 69.362,62.566 68.831,63.242 71.564 C 63.961 74.470,64.014 74.380,60.521 76.196 C 58.909 77.034,59.024 77.069,57.026 75.132 C 55.237 73.398,55.144 73.367,53.333 73.926 C 52.554 74.167,51.242 74.513,50.417 74.695 C 48.359 75.150,48.319 75.199,47.476 78.417 C 47.380 78.783,47.197 79.327,47.070 79.625 L 46.839 80.167 44.078 80.167 L 41.316 80.167 41.090 79.625 C 40.966 79.327,40.677 78.380,40.448 77.520 C 39.842 75.240,39.795 75.197,37.237 74.560 C 36.052 74.266,34.715 73.907,34.265 73.762 C 32.990 73.353,32.916 73.386,31.083 75.167 C 29.072 77.121,29.214 77.095,27.082 75.899 C 24.934 74.695,24.333 74.235,24.333 73.797 C 24.333 73.603,24.287 73.491,24.230 73.548 C 23.764 74.014,25.294 75.286,27.952 76.642 C 29.159 77.258,29.366 77.177,31.192 75.384 C 33.081 73.528,33.098 73.523,35.171 74.212 C 35.856 74.440,37.017 74.759,37.750 74.920 C 39.610 75.329,39.703 75.440,40.357 77.997 C 41.006 80.535,40.957 80.500,43.907 80.500 C 47.259 80.500,47.073 80.617,47.744 78.080 C 48.333 75.855,48.623 75.291,49.250 75.153 C 49.525 75.092,50.200 74.948,50.750 74.832 C 51.300 74.716,52.411 74.406,53.218 74.144 C 55.173 73.508,54.972 73.444,56.917 75.333 C 59.084 77.439,59.031 77.438,62.191 75.485 C 64.163 74.266,64.137 74.341,63.508 71.811 C 63.229 70.687,63.000 69.595,63.000 69.385 C 63.000 69.025,67.473 64.333,67.817 64.333 C 67.939 64.333,69.127 64.632,71.394 65.233 C 72.806 65.607,73.058 65.377,74.843 62.086 C 75.769 60.378,75.764 60.360,73.843 58.332 C 72.888 57.324,72.157 56.407,72.118 56.167 C 72.053 55.771,72.049 55.773,72.025 56.220 M150.320 59.951 C 150.060 60.635,150.189 67.589,150.467 67.867 C 150.795 68.195,167.162 68.183,167.558 67.855 C 167.911 67.562,167.980 60.047,167.633 59.700 C 167.483 59.550,165.329 59.500,158.963 59.500 L 150.492 59.500 150.320 59.951 M35.150 69.588 C 35.644 69.823,36.169 69.992,36.316 69.963 C 36.544 69.919,35.938 69.674,34.583 69.263 C 34.400 69.207,34.655 69.354,35.150 69.588 M37.417 69.333 C 37.915 69.547,38.331 69.547,38.000 69.333 C 37.862 69.244,37.600 69.176,37.417 69.181 L 37.083 69.190 37.417 69.333 M50.000 69.333 C 49.669 69.547,50.085 69.547,50.583 69.333 L 50.917 69.190 50.583 69.181 C 50.400 69.176,50.137 69.244,50.000 69.333 M39.167 69.743 C 39.671 69.877,40.346 69.980,40.667 69.972 L 41.250 69.958 40.583 69.832 C 40.217 69.762,39.542 69.659,39.083 69.603 L 38.250 69.500 39.167 69.743 M48.642 69.580 C 48.598 69.624,48.154 69.728,47.656 69.811 C 46.812 69.951,46.795 69.962,47.417 69.973 C 47.783 69.980,48.458 69.881,48.917 69.754 C 49.622 69.558,49.671 69.521,49.236 69.511 C 48.953 69.505,48.686 69.536,48.642 69.580 M37.000 70.184 C 39.678 71.409,49.211 71.392,51.134 70.159 C 51.368 70.008,51.345 69.994,51.000 70.077 C 47.686 70.870,47.463 70.895,43.917 70.881 C 40.946 70.869,40.190 70.812,38.917 70.508 C 38.092 70.312,37.229 70.115,37.000 70.072 L 36.583 69.993 37.000 70.184 M42.792 70.124 C 43.456 70.155,44.544 70.155,45.208 70.124 C 45.873 70.092,45.329 70.066,44.000 70.066 C 42.671 70.066,42.127 70.092,42.792 70.124 M24.847 71.099 C 24.727 71.640,24.555 72.332,24.464 72.636 C 24.374 72.940,24.335 73.224,24.377 73.266 C 24.419 73.308,24.544 72.984,24.654 72.546 C 24.764 72.108,24.934 71.477,25.031 71.144 C 25.128 70.811,25.175 70.443,25.137 70.326 C 25.098 70.210,24.967 70.557,24.847 71.099 M24.622 88.181 C 18.878 89.535,20.621 98.064,26.422 96.983 C 27.301 96.819,28.597 96.109,28.898 95.627 C 29.241 95.077,28.285 94.340,27.705 94.706 C 25.253 96.257,22.667 95.173,22.667 92.594 C 22.667 90.179,25.184 88.886,27.288 90.220 C 28.523 91.003,29.688 90.146,28.625 89.237 C 27.490 88.267,25.966 87.865,24.622 88.181 M49.429 88.262 C 49.113 88.578,49.033 95.939,49.339 96.511 C 49.535 96.878,50.473 96.960,50.794 96.639 C 50.943 96.491,51.147 96.516,51.655 96.745 C 54.153 97.871,56.540 94.992,55.416 92.208 C 54.835 90.768,53.463 90.127,51.923 90.574 C 51.433 90.717,50.987 90.833,50.933 90.833 C 50.878 90.833,50.833 90.314,50.833 89.680 C 50.833 88.009,50.260 87.430,49.429 88.262 M65.286 88.270 C 65.220 88.335,65.167 88.755,65.167 89.202 C 65.167 89.847,65.081 90.101,64.750 90.432 C 64.231 90.951,64.214 91.547,64.708 91.875 C 65.060 92.107,65.089 92.269,65.167 94.437 L 65.250 96.750 65.917 96.750 L 66.583 96.750 66.624 94.667 C 66.673 92.178,66.737 91.833,67.152 91.833 C 67.821 91.833,67.761 90.757,67.077 90.498 C 66.729 90.365,66.677 90.226,66.633 89.299 L 66.583 88.250 65.994 88.200 C 65.670 88.173,65.351 88.204,65.286 88.270 M33.083 90.411 C 32.992 90.444,32.709 90.517,32.454 90.573 C 29.788 91.162,29.505 95.418,32.049 96.650 C 35.126 98.139,38.146 94.444,36.074 91.724 C 35.405 90.846,33.819 90.149,33.083 90.411 M40.683 90.602 C 40.120 90.802,39.855 90.821,39.550 90.682 C 38.234 90.082,38.000 90.533,38.000 93.667 C 38.000 96.285,38.127 96.833,38.732 96.833 C 39.619 96.833,39.665 96.745,39.686 95.024 C 39.717 92.497,40.148 91.625,41.231 91.897 C 41.902 92.066,42.073 92.585,42.165 94.750 L 42.250 96.750 42.917 96.750 L 43.583 96.750 43.678 94.917 C 43.803 92.492,44.113 91.833,45.130 91.833 C 45.869 91.833,46.078 92.398,46.167 94.642 L 46.250 96.750 46.947 96.801 L 47.644 96.851 47.762 96.064 C 47.948 94.824,47.709 92.022,47.367 91.427 C 46.715 90.293,45.034 90.091,43.870 91.007 C 43.461 91.328,43.459 91.328,42.967 90.915 C 42.696 90.687,42.386 90.499,42.279 90.498 C 42.171 90.496,41.933 90.461,41.750 90.418 C 41.567 90.376,41.086 90.459,40.683 90.602 M58.965 90.498 C 57.659 90.892,56.843 92.092,56.837 93.630 C 56.827 96.089,58.846 97.626,60.937 96.752 C 61.355 96.578,61.621 96.553,61.837 96.669 C 63.099 97.344,63.333 96.871,63.333 93.654 C 63.333 90.405,63.293 90.308,62.081 90.632 C 61.492 90.790,61.224 90.780,60.657 90.580 C 59.887 90.308,59.635 90.296,58.965 90.498 M34.637 92.395 C 35.169 92.926,35.296 93.979,34.909 94.635 C 33.882 96.374,31.520 95.306,31.901 93.276 C 32.150 91.950,33.694 91.453,34.637 92.395 M53.600 92.400 C 54.751 93.551,54.048 95.481,52.471 95.495 C 50.719 95.510,50.186 92.943,51.752 92.036 C 52.373 91.676,52.999 91.799,53.600 92.400 M60.837 92.085 C 61.537 92.447,61.742 92.943,61.685 94.138 C 61.636 95.165,60.082 95.855,59.203 95.240 C 57.383 93.965,58.881 91.074,60.837 92.085 M18.583 102.734 C 15.055 104.348,15.215 109.896,18.820 110.976 C 21.239 111.701,24.658 110.381,23.658 109.110 C 23.226 108.561,23.010 108.557,22.241 109.079 C 19.669 110.824,16.545 108.133,17.927 105.363 C 18.711 103.790,21.764 103.341,22.590 104.677 C 22.771 104.970,23.416 104.824,23.707 104.423 C 24.727 103.021,20.792 101.724,18.583 102.734 M28.030 102.614 C 25.920 103.360,24.709 105.955,25.435 108.174 C 26.450 111.279,30.455 112.234,32.705 109.908 C 36.002 106.502,32.498 101.034,28.030 102.614 M67.875 102.919 C 66.319 104.252,66.631 106.681,68.458 107.445 C 69.236 107.770,69.250 107.938,68.601 109.251 C 68.285 109.888,68.064 110.468,68.108 110.539 C 68.262 110.789,69.105 111.141,69.281 111.029 C 69.585 110.838,72.009 105.906,72.112 105.272 C 72.480 103.003,69.627 101.420,67.875 102.919 M35.211 102.689 C 35.070 102.830,35.101 103.095,35.333 103.731 C 35.505 104.200,36.103 105.887,36.662 107.481 C 37.947 111.143,37.867 111.000,38.652 111.000 C 39.515 111.000,39.510 111.009,40.952 107.055 C 42.409 103.059,42.489 102.607,41.750 102.534 C 40.992 102.460,40.786 102.745,40.024 104.917 C 38.689 108.722,38.742 108.712,37.583 105.373 C 36.610 102.568,36.011 101.889,35.211 102.689 M43.912 102.701 C 43.865 102.823,43.847 104.722,43.872 106.920 L 43.917 110.917 44.583 110.917 L 45.250 110.917 45.250 106.750 L 45.250 102.583 44.624 102.532 C 44.217 102.498,43.968 102.557,43.912 102.701 M47.375 102.682 C 47.156 102.911,47.059 110.192,47.268 110.736 C 47.401 111.083,50.596 111.100,51.553 110.759 C 54.405 109.741,54.709 104.912,52.033 103.115 C 51.197 102.553,47.800 102.238,47.375 102.682 M61.062 103.097 C 60.556 103.760,60.677 103.993,61.532 103.997 C 62.208 104.001,62.243 104.162,62.333 107.667 L 62.417 110.917 63.083 110.917 L 63.750 110.917 63.795 106.845 C 63.845 102.244,63.926 102.506,62.467 102.503 C 61.572 102.500,61.491 102.534,61.062 103.097 M30.375 104.009 C 31.963 104.450,32.788 106.372,32.097 108.025 C 31.246 110.062,28.176 110.144,27.161 108.157 C 25.994 105.868,27.955 103.337,30.375 104.009 M70.167 104.167 C 70.870 104.870,70.405 106.000,69.412 106.000 C 68.974 106.000,68.828 105.903,68.620 105.473 C 68.060 104.318,69.284 103.284,70.167 104.167 M50.577 104.235 C 53.605 105.289,52.323 110.112,49.208 109.385 C 48.834 109.297,48.592 104.463,48.944 104.111 C 49.124 103.931,49.867 103.988,50.577 104.235 M55.708 107.277 C 55.315 107.436,55.454 108.482,55.882 108.590 C 56.633 108.778,58.205 108.600,58.390 108.305 C 58.922 107.458,57.043 106.738,55.708 107.277 " stroke="none" fill="#d4565e" fill-rule="evenodd"></path></g></svg>