<svg id="Layer_1" data-name="Layer 1" xmlns="http://www.w3.org/2000/svg" viewBox="0 0 123.82 124.15"><title>logos</title><path d="M84.5,51.53a9.75,9.75,0,0,1-2.12,4.38c-.31.36-.62.73-1,1.05Q68.5,69.77,55.55,82.55h0a2.56,2.56,0,0,1-.94.58Q48,85.27,41.39,87.36a1.57,1.57,0,0,1-2.23-1.09h0a2.37,2.37,0,0,1,.1-1.1c1.26-4.25,2.56-8.49,3.8-12.75a5,5,0,0,1,1.34-2.25Q56.3,58.33,68.15,46.43c2-2,4-3.76,6.85-4.3h1.79c0,.18.06.07.09.07,2.79.46,4.7,2.16,6.28,4.35h0a7.62,7.62,0,0,1,1.34,3.31ZM61.82,18.36a46.45,46.45,0,1,0,46.45,46.45A46.45,46.45,0,0,0,61.82,18.36Z"/></svg>