<svg id="Layer_1" data-name="Layer 1" xmlns="http://www.w3.org/2000/svg" viewBox="0 0 121.87 124.15"><title>logos</title><path d="M66.34,70.08A12.5,12.5,0,0,0,55.55,59.39l-2.39,8.93h0a8.36,8.36,0,0,1,4.27,4.22Zm47.43-37.42a4.16,4.16,0,0,1-1.2,2.95L71.5,76.66a4.1,4.1,0,0,1-1.84,1.08l-22.86,6.4a4.12,4.12,0,0,1-1.09.15,4.16,4.16,0,0,1-4-5.24l6.09-22.91a4.18,4.18,0,0,1,1.06-1.85l41-41.12a4.16,4.16,0,0,1,2.94-1.23H93a20.83,20.83,0,0,1,20.8,20.72ZM84.38,78l10-10v34.41a5,5,0,0,1-5,5H23.45a5,5,0,0,1-5-5V36.44a5,5,0,0,1,5-5H57.54l-10,10H28.45V97.37H84.38Z"/></svg>