<svg id="Layer_1" data-name="Layer 1" xmlns="http://www.w3.org/2000/svg" viewBox="0 0 121.87 124.15"><title>logos</title><path d="M53.5,66.73a2,2,0,0,1-3.22-.21,4,4,0,0,1-.49-4.22,2.54,2.54,0,0,1,2.48-1.7,4.94,4.94,0,0,1,1.23.72,4.13,4.13,0,0,1,0,5.41ZM51.73,15.5Q36.8,19.16,21.87,22.77C21,23,21,23.49,21,24.18q0,15.6-.08,31.21,0,22.6-.09,45.19a1.43,1.43,0,0,0,1.13,1.66q16.83,5.65,33.64,11.38c.3.1.62.17,1.07.3,0-.73.1-1.37.11-2q.16-16.19.31-32.38.29-27.49.59-55c0-3.55.11-7.1.16-10.66h-.2c-2,.52-3.92,1.09-5.89,1.57Z"/><path d="M75.7,25.43c.87,0,1.18.21,1.17,1.14,0,5.93,0,11.87,0,17.81v2c1.56,0,3.15,0,4.69,0,.15,0,.39-.6.39-.93,0-3.68,0-7.37,0-11.06V21.44c0-.59,0-1-.85-1-5.93,0-11.87,0-17.81,0h0l-.5,0v5H64c3.9,0,7.8,0,11.72,0Z"/><path d="M80.91,81.5c-1.32.05-2.68,0-4,0V99.27H62v5.13c.39,0,.6,0,.88,0,6,0,12,0,18,0,.88,0,1.09-.27,1.09-1.1q0-10.41,0-20.82c0-.81-.25-1.08-1-1.05Z"/><polygon points="101.07 63.92 80.83 52.23 80.83 60.01 66.96 60.01 66.96 67.83 80.83 67.83 80.83 75.61 101.07 63.92"/></svg>