<svg id="Layer_1" data-name="Layer 1" xmlns="http://www.w3.org/2000/svg" viewBox="0 0 121.87 124.15"><title>logos</title><path d="M85.13,63.7q-8.45,8.47-16.92,16.93a2.1,2.1,0,0,1-2.38.66,2.16,2.16,0,0,1-1.35-2.18c0-2.61,0-5.23,0-7.84v-1h-1l-12.55,0c-2,0-2.69-.7-2.69-2.68v-11c0-2,.7-2.69,2.7-2.69l12.55,0h1c0-.39,0-.65,0-.95,0-2.64,0-5.27,0-7.91,0-1.56,1-2.52,2.36-2.25h0a2.62,2.62,0,0,1,1.26.7q8.52,8.47,17,17a2.05,2.05,0,0,1,0,3.25ZM53.94,82.48c-3.16,0-6.34.08-9.49-.08A8.88,8.88,0,0,1,36,73.7c-.1-3.88,0-7.72,0-11.62h0c0-3.71,0-7.39,0-11.08a9.21,9.21,0,0,1,7.33-9.14,14.58,14.58,0,0,1,2.3-.2c3.05,0,6.11,0,9.16,0,1.33,0,1.57.25,1.63,1.59.1,2.34,0,2.49-2.34,2.49H45.59c-3.44,0-5.58,2.12-5.58,5.55q0,10.78,0,21.55c0,3.45,2.13,5.55,5.56,5.57h9.16c1.4,0,1.56.16,1.62,1.55.1,2.39,0,2.54-2.41,2.53Zm7-70.41a50,50,0,1,0,50,50A50,50,0,0,0,60.93,12.07Z"/></svg>