<?xml version="1.0" encoding="UTF-8"?>
<svg width="100pt" height="100pt" version="1.1" viewBox="0 0 100 100" xmlns="http://www.w3.org/2000/svg">
 <g>
  <path d="m98.52 65.859l-16.32-43c-1.3711-3.5664-5.3672-5.3555-8.9375-4l-21.262 8.1406c-1.2266 0.52734-1.8164 1.9258-1.3438 3.1719 0.47656 1.2461 1.8477 1.8984 3.1133 1.4766l21.23-8.1094c1.0078-0.35547 2.1172 0.14063 2.5195 1.1328l16.32 43c0.35547 1.0039-0.14062 2.1133-1.1289 2.5195l-17.16 6.4883v-30.84c-0.007812-3.8242-3.1055-6.9258-6.9297-6.9297h-10.441c-1.3789 0-2.5 1.1172-2.5 2.5 0 1.3789 1.1211 2.5 2.5 2.5h10.441c0.53125 0 1.0391 0.21094 1.4141 0.58594s0.58594 0.88281 0.58594 1.4141v45.879c0 0.53125-0.21094 1.0391-0.58594 1.4141s-0.88281 0.58594-1.4141 0.58594h-33.43v-15.918c-0.011718-3.793-3.0859-6.8672-6.8828-6.8711h-15.867v-19.82c0-1.3789-1.1211-2.5-2.5-2.5-1.3828 0-2.5 1.1211-2.5 2.5v22.301c0 0.66016 0.26172 1.293 0.73047 1.7578l22.777 22.762c0.46875 0.46875 1.1016 0.73047 1.7617 0.73047h35.91c3.8242-0.007813 6.9219-3.1055 6.9297-6.9297v-9.8008l19-7.1992c3.5703-1.3672 5.3594-5.3672 4-8.9414zm-68.301 12v12.371l-14.219-14.23h12.309c1.0391 0 1.8906 0.83203 1.9102 1.8711z"/>
  <path d="m8.7188 25.48h1c1.9766 4.1328 2.8008 8.7188 2.3906 13.281-0.30859 3.3086 2.0859 6.2578 5.3906 6.6289 0.42969 0.046875 0.85938 0.070313 1.2891 0.070313 3.7188 0 8.3203-1.5508 12.859-4.3281l7.1914 10.289c0.80469 1.0703 2.3164 1.3086 3.4141 0.54297 1.1016-0.76953 1.3945-2.2695 0.66797-3.3945l-7.2109-10.332c4.6719-3.6992 7.9219-8 8.8711-11.82l-0.003906 0.003906c0.78906-3.2305-1.1562-6.4922-4.3672-7.3438-4.4258-1.1836-8.4492-3.5391-11.652-6.8164 1.4414-3.082 1.3828-5.9219-0.10938-8.0625-3.0703-4.3906-11.039-3.7695-18.527 1.4727-3.0703 2.0547-5.625 4.793-7.4609 8-1.8086 3.3984-1.9102 6.5586-0.28906 8.8789 1.3672 1.9688 3.707 2.9297 6.5469 2.9297zm30.281-1.5898c0.57812 0.15234 0.93359 0.73438 0.80078 1.3203-0.76953 3.1094-4.2617 7.1992-8.8906 10.43s-9.7188 5.1094-12.91 4.7695c-0.60938-0.058594-1.0586-0.60156-1-1.2109 0.47266-5.0859-0.35156-10.207-2.3906-14.891 2.1289-0.8125 4.1445-1.8906 6-3.207 1.8867-1.3047 3.5938-2.8438 5.0898-4.582 3.7344 3.5469 8.3125 6.0859 13.301 7.3711zm-32.148-7.8906c1.4727-2.5117 3.4961-4.6523 5.918-6.2695 2.6758-2.0273 5.8828-3.2305 9.2305-3.4688 0.87891-0.11719 1.7617 0.17578 2.3984 0.78906 0.48047 0.67969 0.23828 2.1016-0.60938 3.6914v-0.003907c-1.4805 2.5117-3.5117 4.6523-5.9375 6.2617-5.4492 3.8008-10.59 4.1406-11.602 2.6914-0.48047-0.69141-0.25-2.082 0.60156-3.6914z"/>
 </g>
</svg>
