<?xml version="1.0" encoding="utf-8"?>
<!-- Generator: Adobe Illustrator 21.1.0, SVG Export Plug-In . SVG Version: 6.00 Build 0)  -->
<svg version="1.1" id="Layer_1" xmlns="http://www.w3.org/2000/svg" xmlns:xlink="http://www.w3.org/1999/xlink" x="0px" y="0px"
	 viewBox="0 0 89.8 39.6" style="enable-background:new 0 0 89.8 39.6;" xml:space="preserve">
<style type="text/css">
	.st0{fill:#FF3E3E;}
	.st1{font-family:'Muli-Regular';}
	.st2{font-size:12px;}
	.st3{fill:#FF9999;}
	.st4{fill:#FFE6E6;stroke:#FFFFFF;stroke-width:0.5;stroke-miterlimit:10;}
	.st5{fill:#FF9999;stroke:#FFFFFF;stroke-width:0.5;stroke-miterlimit:10;}
	.st6{fill:#FF6666;stroke:#FFFFFF;stroke-width:0.5;stroke-miterlimit:10;}
	.st7{fill:#FF3E3E;stroke:#FFFFFF;stroke-width:0.5;stroke-miterlimit:10;}
</style>
<text transform="matrix(1 0 0 1 46.35 19.64)" class="st0 st1 st2">patient</text>
<text transform="matrix(1 0 0 1 46.35 29.64)" class="st3 st1 st2">s</text>
<text transform="matrix(1 0 0 1 52.24 29.64)" class="st3 st1 st2">tack</text>
<path class="st4" d="M22.5,16.9l1.8,0.2l0.3,0.1c1.7,0.3,3.4,0.8,4.9,1.4c1,0.5,2.1,1,3,1.7c1.1,0.7,2.1,1.5,3.1,2.4
	c0.8,0.7,1.6,1.5,2.3,2.4c0.9,1.1,1.7,2.1,2.6,3.2l0,0c0.1,0.1,0,0.2-0.1,0.2c-1.8,0.7-3.5,1.4-5.3,2s-3.9,1.3-5.9,1.9l0,0
	c-2.6,0.8-5.3,1.5-8,2c-2.2,0.4-4.4,0.6-6.7,0.6c-0.5,0-1,0-1.5,0l-1.8-0.2L11,34.8c-0.7-0.2-1.5-0.3-2.2-0.5l0,0
	c-2.4-0.7-4-1.7-4.7-3S3.7,29,4.9,27.9c1.5-1.3,3.4-2.2,5.4-2.5l0.4-0.1c-0.3-0.2-0.5-0.4-0.8-0.6c-1.3-1.1-1.6-2.5-0.8-3.8
	s2.6-2.4,5.1-3.1c2.1-0.6,4.2-0.9,6.4-0.9C21.3,16.9,21.9,16.9,22.5,16.9L22.5,16.9z"/>
<path class="st5" d="M22.5,12.8l1.8,0.2l0.3,0.1c1.7,0.3,3.4,0.8,4.9,1.4c1,0.5,2.1,1,3,1.7c1.1,0.7,2.1,1.5,3.1,2.4
	c0.8,0.7,1.5,1.5,2.3,2.4c0.9,1.1,1.7,2.1,2.6,3.2l0,0c0.1,0.1,0,0.2-0.1,0.2c-1.8,0.7-3.5,1.4-5.3,2s-3.9,1.3-5.9,2l0,0
	c-2.6,0.8-5.3,1.5-8,2C19,30.8,16.8,31,14.5,31c-0.5,0-1,0-1.5,0l-1.8-0.2l-0.3-0.1c-0.7-0.2-1.5-0.3-2.2-0.5l0,0
	c-2.4-0.7-4-1.7-4.7-3s-0.4-2.4,0.8-3.5c1.5-1.3,3.4-2.2,5.4-2.5l0.4-0.1c-0.3-0.2-0.5-0.4-0.8-0.6c-1.3-1.1-1.6-2.5-0.8-3.8
	s2.6-2.4,5.1-3.1c2.1-0.6,4.2-0.9,6.4-0.9C21.2,12.7,21.9,12.7,22.5,12.8L22.5,12.8z"/>
<path class="st6" d="M22.5,8.7l1.8,0.2L24.6,9c1.7,0.3,3.4,0.8,4.9,1.4c1,0.5,2.1,1,3,1.7c1.1,0.7,2.1,1.5,3.1,2.4
	c0.8,0.7,1.6,1.5,2.3,2.4c0.9,1.1,1.7,2.1,2.6,3.2l0,0c0.1,0.1,0,0.2-0.1,0.2c-1.8,0.7-3.5,1.4-5.3,2s-3.9,1.3-5.9,2l0,0
	c-2.6,0.8-5.3,1.5-8,2c-2.2,0.4-4.4,0.6-6.7,0.6c-0.5,0-1,0-1.5,0l-1.8-0.2L11,26.6c-0.7-0.2-1.5-0.3-2.2-0.5l0,0
	c-2.4-0.7-4-1.7-4.7-3s-0.4-2.4,0.8-3.5c1.5-1.3,3.4-2.2,5.4-2.5l0.4-0.1c-0.3-0.2-0.5-0.4-0.8-0.6c-1.3-1.1,3.5-1.5,4.3-2.8
	s-2.5-3.4,0-4.1c2.1-0.6,4.2-0.9,6.4-0.9C21.3,8.6,21.9,8.6,22.5,8.7L22.5,8.7z"/>
<path class="st7" d="M22.5,4.6l1.8,0.2l0.3,0.1c1.7,0.3,3.4,0.8,4.9,1.4c1,0.5,2.1,1,3,1.7c1.1,0.7,2.1,1.5,3.1,2.4
	c0.8,0.7,1.6,1.5,2.3,2.4c0.9,1.1,1.7,2.1,2.6,3.2l0,0c0.1,0.1,0,0.2-0.1,0.2c-1.8,0.7-3.5,1.4-5.3,2s-3.9,1.3-5.9,2l0,0
	c-2.6,0.8-5.3,1.5-8,2c-2.2,0.4-4.4,0.6-6.7,0.6c-0.5,0-1,0-1.5,0l-1.8-0.2L11,22.5c-0.7-0.2-1.5-0.3-2.2-0.5l0,0
	c-2.4-0.7-4-1.7-4.7-3s-0.4-2.4,0.8-3.5c1.5-1.3,3.4-2.1,5.3-2.5l0.4-0.1c-0.3-0.2-0.5-0.4-0.8-0.6c-1.3-1.1-1.6-2.5-0.8-3.8
	s2.6-2.4,5.1-3.1c2.1-0.6,4.2-0.9,6.4-0.9C21.2,4.5,21.9,4.5,22.5,4.6L22.5,4.6z"/>
</svg>
