<?xml version="1.0" encoding="utf-8"?>
<!-- Generator: Adobe Illustrator 21.1.0, SVG Export Plug-In . SVG Version: 6.00 Build 0)  -->
<svg version="1.1" id="Layer_1" xmlns="http://www.w3.org/2000/svg" xmlns:xlink="http://www.w3.org/1999/xlink" x="0px" y="0px"
	 viewBox="0 0 89.8 39.6" style="enable-background:new 0 0 89.8 39.6;" xml:space="preserve">
<style type="text/css">
	.st0{enable-background:new    ;}
	.st1{fill:#FF3E3E;}
	.st2{fill:#FF9999;}
	.st3{fill:#FFE6E6;stroke:#FFFFFF;stroke-width:0.5;stroke-miterlimit:10;}
	.st4{fill:#FF9999;stroke:#FFFFFF;stroke-width:0.5;stroke-miterlimit:10;}
	.st5{fill:#FF6666;stroke:#FFFFFF;stroke-width:0.5;stroke-miterlimit:10;}
	.st6{fill:#FF3E3E;stroke:#FFFFFF;stroke-width:0.5;stroke-miterlimit:10;}
</style>
<title>patient-stack02-07</title>
<g class="st0">
	<path class="st1" d="M51.7,13.9c0.4,0.3,0.7,0.6,0.9,1.1c0.2,0.5,0.3,1,0.3,1.6s-0.1,1.2-0.3,1.6c-0.2,0.5-0.5,0.8-0.9,1.1
		c-0.4,0.3-0.9,0.4-1.4,0.4c-0.5,0-0.9-0.1-1.2-0.3c-0.4-0.2-0.6-0.5-0.8-0.9v3.7h-1v-6.9c0-0.6,0-1.2-0.1-1.7h0.9l0.1,1.2
		c0.2-0.4,0.4-0.7,0.8-1c0.4-0.2,0.8-0.3,1.3-0.3C50.8,13.5,51.3,13.6,51.7,13.9z M51.5,18.3c0.3-0.4,0.5-1,0.5-1.7
		c0-0.7-0.2-1.3-0.5-1.7c-0.3-0.4-0.8-0.6-1.4-0.6c-0.6,0-1.1,0.2-1.4,0.6c-0.3,0.4-0.5,1-0.5,1.7s0.2,1.3,0.5,1.7
		c0.3,0.4,0.8,0.6,1.4,0.6C50.7,18.9,51.2,18.7,51.5,18.3z"/>
	<path class="st1" d="M59.8,13.6v6h-1v-1.1c-0.2,0.4-0.4,0.7-0.8,0.9c-0.4,0.2-0.8,0.3-1.2,0.3c-0.5,0-1-0.1-1.4-0.4
		s-0.7-0.6-0.9-1.1c-0.2-0.5-0.3-1-0.3-1.6s0.1-1.2,0.3-1.6c0.2-0.5,0.5-0.8,0.9-1.1c0.4-0.3,0.9-0.4,1.4-0.4c0.5,0,0.9,0.1,1.2,0.3
		c0.4,0.2,0.6,0.5,0.8,0.9v-1H59.8z M58.4,18.3c0.3-0.4,0.5-1,0.5-1.7s-0.2-1.3-0.5-1.7c-0.3-0.4-0.8-0.6-1.4-0.6
		c-0.6,0-1.1,0.2-1.4,0.6s-0.5,1-0.5,1.7c0,0.7,0.2,1.3,0.5,1.7c0.3,0.4,0.8,0.6,1.4,0.6C57.6,18.9,58,18.7,58.4,18.3z"/>
	<path class="st1" d="M63,14.4v3.3c0,0.4,0.1,0.8,0.3,0.9c0.2,0.2,0.4,0.3,0.8,0.3c0.2,0,0.4,0,0.6-0.1v0.8
		c-0.2,0.1-0.5,0.1-0.8,0.1c-0.6,0-1-0.2-1.3-0.5c-0.3-0.3-0.5-0.8-0.5-1.4v-3.4h-1.2v-0.8H62v-1.5l1-0.3v1.9h1.7v0.8H63z"/>
	<path class="st1" d="M65.8,11H67v1.1h-1.2V11z M65.9,19.6v-6h1v6H65.9z"/>
	<path class="st1" d="M73.8,16.6h-4.4c0,0.8,0.2,1.3,0.5,1.7c0.3,0.4,0.9,0.6,1.5,0.6c0.7,0,1.4-0.2,1.9-0.7l0.3,0.7
		c-0.3,0.2-0.6,0.4-1,0.6c-0.4,0.1-0.8,0.2-1.3,0.2c-0.9,0-1.7-0.3-2.2-0.8s-0.8-1.3-0.8-2.3c0-0.6,0.1-1.2,0.4-1.6s0.6-0.8,1-1.1
		c0.4-0.3,0.9-0.4,1.5-0.4c0.8,0,1.4,0.3,1.9,0.8c0.5,0.5,0.7,1.2,0.7,2.2V16.6z M70,14.7c-0.3,0.3-0.5,0.7-0.6,1.3h3.5
		c0-0.6-0.2-1-0.5-1.3c-0.3-0.3-0.7-0.4-1.2-0.4S70.3,14.4,70,14.7z"/>
	<path class="st1" d="M80.5,15.8v3.8h-1v-3.7c0-0.6-0.1-1-0.3-1.2c-0.2-0.3-0.6-0.4-1.1-0.4c-0.6,0-1,0.2-1.3,0.5s-0.5,0.8-0.5,1.4
		v3.5h-1v-4.3c0-0.6,0-1.2-0.1-1.7h0.9l0.1,1.1c0.2-0.4,0.5-0.7,0.8-0.9c0.4-0.2,0.8-0.3,1.3-0.3C79.7,13.5,80.5,14.3,80.5,15.8z"/>
	<path class="st1" d="M83.6,14.4v3.3c0,0.4,0.1,0.8,0.3,0.9c0.2,0.2,0.4,0.3,0.8,0.3c0.2,0,0.4,0,0.6-0.1v0.8
		c-0.2,0.1-0.5,0.1-0.8,0.1c-0.6,0-1-0.2-1.3-0.5c-0.3-0.3-0.5-0.8-0.5-1.4v-3.4h-1.2v-0.8h1.2v-1.5l1-0.3v1.9h1.7v0.8H83.6z"/>
</g>
<g class="st0">
	<path class="st2" d="M46.9,28.9l0.3-0.7c0.3,0.3,0.7,0.4,1,0.6c0.3,0.1,0.7,0.2,1.1,0.2c0.5,0,0.8-0.1,1-0.2
		c0.2-0.2,0.4-0.4,0.4-0.7c0-0.2-0.1-0.4-0.2-0.6c-0.2-0.1-0.4-0.3-0.8-0.3l-1-0.2c-0.5-0.1-0.9-0.3-1.2-0.6c-0.3-0.3-0.4-0.6-0.4-1
		c0-0.5,0.2-1,0.6-1.3s1-0.5,1.7-0.5c0.4,0,0.8,0.1,1.2,0.2c0.4,0.1,0.7,0.3,0.9,0.6L51.3,25c-0.6-0.5-1.2-0.7-1.8-0.7
		c-0.4,0-0.8,0.1-1,0.2s-0.4,0.4-0.4,0.7c0,0.2,0.1,0.4,0.2,0.6c0.1,0.1,0.4,0.3,0.7,0.3l1,0.3c0.6,0.1,1,0.3,1.2,0.6
		c0.3,0.3,0.4,0.6,0.4,1c0,0.5-0.2,0.9-0.6,1.2c-0.4,0.3-1,0.5-1.7,0.5C48.3,29.7,47.5,29.5,46.9,28.9z"/>
</g>
<g class="st0">
	<path class="st2" d="M54.5,24.4v3.3c0,0.4,0.1,0.8,0.3,0.9c0.2,0.2,0.4,0.3,0.8,0.3c0.2,0,0.4,0,0.6-0.1v0.8
		c-0.2,0.1-0.5,0.1-0.8,0.1c-0.6,0-1-0.2-1.3-0.5c-0.3-0.3-0.5-0.8-0.5-1.4v-3.4h-1.2v-0.8h1.2v-1.5l1-0.3v1.9h1.7v0.8H54.5z"/>
	<path class="st2" d="M62.7,23.6v6h-1v-1.1c-0.2,0.4-0.4,0.7-0.8,0.9s-0.8,0.3-1.2,0.3c-0.5,0-1-0.1-1.4-0.4
		c-0.4-0.3-0.7-0.6-0.9-1.1s-0.3-1-0.3-1.6s0.1-1.2,0.3-1.6s0.5-0.8,0.9-1.1c0.4-0.3,0.9-0.4,1.4-0.4c0.5,0,0.9,0.1,1.2,0.3
		c0.4,0.2,0.6,0.5,0.8,0.9v-1H62.7z M61.3,28.3c0.3-0.4,0.5-1,0.5-1.7s-0.2-1.3-0.5-1.7c-0.3-0.4-0.8-0.6-1.4-0.6s-1.1,0.2-1.4,0.6
		c-0.3,0.4-0.5,1-0.5,1.7c0,0.7,0.2,1.3,0.5,1.7c0.3,0.4,0.8,0.6,1.4,0.6C60.5,28.9,60.9,28.7,61.3,28.3z"/>
	<path class="st2" d="M65.6,29.3c-0.4-0.3-0.8-0.6-1-1.1c-0.2-0.5-0.4-1-0.4-1.6s0.1-1.2,0.4-1.6c0.2-0.5,0.6-0.8,1-1.1
		c0.4-0.3,1-0.4,1.6-0.4c0.4,0,0.8,0.1,1.2,0.2c0.4,0.1,0.7,0.3,0.9,0.6L69,25c-0.3-0.2-0.6-0.4-0.9-0.5c-0.3-0.1-0.6-0.2-0.9-0.2
		c-0.6,0-1.1,0.2-1.5,0.6c-0.4,0.4-0.5,1-0.5,1.7c0,0.7,0.2,1.3,0.5,1.7c0.3,0.4,0.8,0.6,1.5,0.6c0.3,0,0.6-0.1,0.9-0.2
		c0.3-0.1,0.6-0.3,0.9-0.5l0.3,0.7c-0.3,0.2-0.6,0.4-1,0.6c-0.4,0.1-0.8,0.2-1.2,0.2C66.5,29.7,66,29.6,65.6,29.3z"/>
	<path class="st2" d="M75.9,29.6h-1.3l-3.1-2.9v2.9h-1v-8.8h1v5.6l2.8-2.8h1.2l-3,2.9L75.9,29.6z"/>
</g>
<path class="st3" d="M22.5,16.9l1.8,0.2l0.3,0.1c1.7,0.3,3.4,0.8,4.9,1.4c1,0.5,2.1,1,3,1.7c1.1,0.7,2.1,1.5,3.1,2.4
	c0.8,0.7,1.6,1.5,2.3,2.4c0.9,1.1,1.7,2.1,2.6,3.2l0,0c0.1,0.1,0,0.2-0.1,0.2c-1.8,0.7-3.5,1.4-5.3,2s-3.9,1.3-5.9,1.9l0,0
	c-2.6,0.8-5.3,1.5-8,2c-2.2,0.4-4.4,0.6-6.7,0.6c-0.5,0-1,0-1.5,0l-1.8-0.2L11,34.8c-0.7-0.2-1.5-0.3-2.2-0.5l0,0
	c-2.4-0.7-4-1.7-4.7-3S3.7,29,4.9,27.9c1.5-1.3,3.4-2.2,5.4-2.5l0.4-0.1c-0.3-0.2-0.5-0.4-0.8-0.6c-1.3-1.1-1.6-2.5-0.8-3.8
	s2.6-2.4,5.1-3.1c2.1-0.6,4.2-0.9,6.4-0.9C21.3,16.9,21.9,16.9,22.5,16.9L22.5,16.9z"/>
<path class="st4" d="M22.5,12.8l1.8,0.2l0.3,0.1c1.7,0.3,3.4,0.8,4.9,1.4c1,0.5,2.1,1,3,1.7c1.1,0.7,2.1,1.5,3.1,2.4
	c0.8,0.7,1.5,1.5,2.3,2.4c0.9,1.1,1.7,2.1,2.6,3.2l0,0c0.1,0.1,0,0.2-0.1,0.2c-1.8,0.7-3.5,1.4-5.3,2s-3.9,1.3-5.9,2l0,0
	c-2.6,0.8-5.3,1.5-8,2C19,30.8,16.8,31,14.5,31c-0.5,0-1,0-1.5,0l-1.8-0.2l-0.3-0.1c-0.7-0.2-1.5-0.3-2.2-0.5l0,0
	c-2.4-0.7-4-1.7-4.7-3s-0.4-2.4,0.8-3.5c1.5-1.3,3.4-2.2,5.4-2.5l0.4-0.1c-0.3-0.2-0.5-0.4-0.8-0.6c-1.3-1.1-1.6-2.5-0.8-3.8
	s2.6-2.4,5.1-3.1c2.1-0.6,4.2-0.9,6.4-0.9C21.2,12.7,21.9,12.7,22.5,12.8L22.5,12.8z"/>
<path class="st5" d="M22.5,8.7l1.8,0.2L24.6,9c1.7,0.3,3.4,0.8,4.9,1.4c1,0.5,2.1,1,3,1.7c1.1,0.7,2.1,1.5,3.1,2.4
	c0.8,0.7,1.6,1.5,2.3,2.4c0.9,1.1,1.7,2.1,2.6,3.2l0,0c0.1,0.1,0,0.2-0.1,0.2c-1.8,0.7-3.5,1.4-5.3,2s-3.9,1.3-5.9,2l0,0
	c-2.6,0.8-5.3,1.5-8,2c-2.2,0.4-4.4,0.6-6.7,0.6c-0.5,0-1,0-1.5,0l-1.8-0.2L11,26.6c-0.7-0.2-1.5-0.3-2.2-0.5l0,0
	c-2.4-0.7-4-1.7-4.7-3s-0.4-2.4,0.8-3.5c1.5-1.3,3.4-2.2,5.4-2.5l0.4-0.1c-0.3-0.2-0.5-0.4-0.8-0.6c-1.3-1.1,3.5-1.5,4.3-2.8
	s-2.5-3.4,0-4.1c2.1-0.6,4.2-0.9,6.4-0.9C21.3,8.6,21.9,8.6,22.5,8.7L22.5,8.7z"/>
<path class="st6" d="M22.5,4.6l1.8,0.2l0.3,0.1c1.7,0.3,3.4,0.8,4.9,1.4c1,0.5,2.1,1,3,1.7c1.1,0.7,2.1,1.5,3.1,2.4
	c0.8,0.7,1.6,1.5,2.3,2.4c0.9,1.1,1.7,2.1,2.6,3.2l0,0c0.1,0.1,0,0.2-0.1,0.2c-1.8,0.7-3.5,1.4-5.3,2s-3.9,1.3-5.9,2l0,0
	c-2.6,0.8-5.3,1.5-8,2c-2.2,0.4-4.4,0.6-6.7,0.6c-0.5,0-1,0-1.5,0l-1.8-0.2L11,22.5c-0.7-0.2-1.5-0.3-2.2-0.5l0,0
	c-2.4-0.7-4-1.7-4.7-3s-0.4-2.4,0.8-3.5c1.5-1.3,3.4-2.1,5.3-2.5l0.4-0.1c-0.3-0.2-0.5-0.4-0.8-0.6c-1.3-1.1-1.6-2.5-0.8-3.8
	s2.6-2.4,5.1-3.1c2.1-0.6,4.2-0.9,6.4-0.9C21.2,4.5,21.9,4.5,22.5,4.6L22.5,4.6z"/>
</svg>
