<svg id="Layer_1" data-name="Layer 1" xmlns="http://www.w3.org/2000/svg" viewBox="0 0 89.85 39.62"><defs><style>.cls-1{font-size:12px;font-family:Muli-Regular, Muli;}.cls-1,.cls-7{fill:#ff3e3e;}.cls-2,.cls-5{fill:#f99;}.cls-3{letter-spacing:-0.01em;}.cls-4{fill:#ffe6e6;}.cls-4,.cls-5,.cls-6,.cls-7{stroke:#fff;stroke-miterlimit:10;stroke-width:0.5px;}.cls-6{fill:#f66;}</style></defs><title>patient-stack02-07</title><text class="cls-1" transform="translate(46.35 19.64)">patient<tspan class="cls-2"><tspan class="cls-3" x="0" y="10">s</tspan><tspan x="5.89" y="10">tack</tspan></tspan></text><path class="cls-4" d="M22.52,16.94l1.76.19.34.07a21.13,21.13,0,0,1,4.93,1.43,20,20,0,0,1,3,1.68,24.7,24.7,0,0,1,3.09,2.44,32.42,32.42,0,0,1,2.3,2.36c.91,1.06,1.71,2.14,2.57,3.21h0c.07.11,0,.17-.14.22-1.75.67-3.46,1.37-5.27,2s-3.86,1.31-5.85,1.95h0a68.56,68.56,0,0,1-8,2,33.46,33.46,0,0,1-6.67.58c-.54,0-1,0-1.54,0l-1.81-.2-.28-.06c-.74-.16-1.49-.3-2.21-.5h0c-2.37-.66-4-1.71-4.68-2.95s-.36-2.4.84-3.51a11.71,11.71,0,0,1,5.38-2.53l.41-.06c-.31-.24-.54-.42-.76-.61-1.32-1.14-1.62-2.48-.82-3.76s2.62-2.4,5.11-3.13a23,23,0,0,1,6.38-.9c.65,0,1.3,0,2,0Z"/><path class="cls-5" d="M22.52,12.83l1.76.19.34.07a21.13,21.13,0,0,1,4.93,1.43,20,20,0,0,1,3,1.68,24.7,24.7,0,0,1,3.09,2.44A32.42,32.42,0,0,1,37.9,21c.91,1.06,1.71,2.14,2.57,3.21h0c.09.11,0,.17-.14.22-1.75.67-3.46,1.37-5.27,2s-3.86,1.31-5.85,1.95h0a68.56,68.56,0,0,1-8,2,33.46,33.46,0,0,1-6.67.58c-.54,0-1,0-1.54,0l-1.81-.2-.28-.06c-.74-.16-1.49-.3-2.21-.5h0c-2.37-.66-4-1.71-4.68-2.95s-.36-2.4.84-3.51a11.71,11.71,0,0,1,5.38-2.53l.41-.06c-.31-.24-.54-.42-.76-.61-1.32-1.14-1.62-2.48-.82-3.76s2.62-2.4,5.11-3.13a23,23,0,0,1,6.38-.9c.65,0,1.3,0,2,0Z"/><path class="cls-6" d="M22.52,8.72l1.76.19.34.07a21.13,21.13,0,0,1,4.93,1.43,20,20,0,0,1,3,1.68,24.7,24.7,0,0,1,3.09,2.44,32.42,32.42,0,0,1,2.3,2.36c.91,1.06,1.71,2.14,2.57,3.21h0c.07.1,0,.17-.14.22-1.75.67-3.46,1.37-5.27,2s-3.86,1.31-5.85,1.95h0a68.56,68.56,0,0,1-8,2,33.46,33.46,0,0,1-6.67.58c-.54,0-1,0-1.54,0l-1.81-.2-.28-.06c-.74-.16-1.49-.3-2.21-.5h0c-2.37-.66-4-1.71-4.68-2.95s-.36-2.4.84-3.51a11.71,11.71,0,0,1,5.38-2.53l.41-.06c-.31-.24-.54-.42-.76-.61-1.32-1.14,3.5-1.51,4.29-2.79s-2.49-3.37,0-4.11a23,23,0,0,1,6.38-.9c.65,0,1.3,0,2,0Z"/><path class="cls-7" d="M22.52,4.61l1.76.19.34.07a21.13,21.13,0,0,1,4.93,1.43,20,20,0,0,1,3,1.68,24.7,24.7,0,0,1,3.09,2.44,32.42,32.42,0,0,1,2.3,2.36c.91,1.06,1.71,2.14,2.57,3.21h0c.07.1,0,.17-.14.22-1.75.67-3.46,1.37-5.27,2s-3.86,1.31-5.85,1.95h0a68.56,68.56,0,0,1-8,2,33.46,33.46,0,0,1-6.67.58c-.54,0-1,0-1.54,0l-1.81-.2-.28-.06c-.74-.16-1.49-.3-2.21-.5h0c-2.37-.66-4-1.71-4.68-2.95s-.36-2.4.84-3.51A11.71,11.71,0,0,1,10.24,13l.41-.06c-.31-.24-.54-.42-.76-.61-1.32-1.14-1.62-2.48-.82-3.76s2.62-2.4,5.11-3.13a23,23,0,0,1,6.38-.9c.65,0,1.3,0,2,0Z"/></svg>