<?xml version="1.0" encoding="UTF-8"?>
<svg width="100pt" height="100pt" version="1.1" viewBox="0 0 100 100" xmlns="http://www.w3.org/2000/svg">
 <g>
  <path d="m28.25 18.5c0.44922 0 0.80078-0.35156 0.80078-0.80078v-6.5c0-0.44922-0.35156-0.80078-0.80078-0.80078s-0.80078 0.35156-0.80078 0.80078v6.5c-0.050781 0.44922 0.35156 0.80078 0.80078 0.80078z"/>
  <path d="m33.102 18.5c0.44922 0 0.80078-0.35156 0.80078-0.80078v-6.5c0-0.44922-0.35156-0.80078-0.80078-0.80078-0.44922 0-0.80078 0.35156-0.80078 0.80078v6.5c0 0.44922 0.34766 0.80078 0.80078 0.80078z"/>
  <path d="m37.949 18.5c0.44922 0 0.80078-0.35156 0.80078-0.80078v-6.5c0-0.44922-0.35156-0.80078-0.80078-0.80078s-0.80078 0.35156-0.80078 0.80078v6.5c0 0.44922 0.35156 0.80078 0.80078 0.80078z"/>
  <path d="m42.852 18.5c0.44922 0 0.80078-0.35156 0.80078-0.80078v-6.5c0-0.44922-0.35156-0.80078-0.80078-0.80078-0.44922 0-0.80078 0.35156-0.80078 0.80078v6.5c0 0.44922 0.34766 0.80078 0.80078 0.80078z"/>
  <path d="m47.699 18.5c0.44922 0 0.80078-0.35156 0.80078-0.80078v-6.5c0-0.44922-0.35156-0.80078-0.80078-0.80078s-0.80078 0.35156-0.80078 0.80078v6.5c0 0.44922 0.35156 0.80078 0.80078 0.80078z"/>
  <path d="m52.551 18.5c0.44922 0 0.80078-0.35156 0.80078-0.80078v-6.5c0-0.44922-0.35156-0.80078-0.80078-0.80078s-0.80078 0.35156-0.80078 0.80078v6.5c0 0.44922 0.39844 0.80078 0.80078 0.80078z"/>
  <path d="m57.449 18.5c0.44922 0 0.80078-0.35156 0.80078-0.80078v-6.5c0-0.44922-0.35156-0.80078-0.80078-0.80078s-0.80078 0.35156-0.80078 0.80078v6.5c0 0.44922 0.35156 0.80078 0.80078 0.80078z"/>
  <path d="m62.301 18.5c0.44922 0 0.80078-0.35156 0.80078-0.80078v-6.5c0-0.44922-0.35156-0.80078-0.80078-0.80078s-0.80078 0.35156-0.80078 0.80078v6.5c0 0.44922 0.35156 0.80078 0.80078 0.80078z"/>
  <path d="m67.199 18.5c0.44922 0 0.80078-0.35156 0.80078-0.80078v-6.5c0-0.44922-0.35156-0.80078-0.80078-0.80078s-0.80078 0.35156-0.80078 0.80078v6.5c-0.046876 0.44922 0.35156 0.80078 0.80078 0.80078z"/>
  <path d="m72.051 18.5c0.44922 0 0.80078-0.35156 0.80078-0.80078v-6.5c0-0.44922-0.35156-0.80078-0.80078-0.80078s-0.80078 0.35156-0.80078 0.80078v6.5c0 0.44922 0.35156 0.80078 0.80078 0.80078z"/>
  <path d="m50.898 43.25h-11v7.5h-7.5v11h7.5v7.5h11v-7.5h7.5v-11h-7.5zm5.0508 9.9492v6.1016h-7.5v7.5h-6.0977v-7.5h-7.5v-6.1016h7.5v-7.5h6.1016v7.5z"/>
  <path d="m77.75 3.5h-55.25c-2.1992 0-4 1.8008-4 4v15.449c0 1.1992 0.89844 2.1992 2.0508 2.3984v64.949c0 3.1016 2.5508 5.6484 5.6484 5.6484h47.898c3.1016 0 5.6484-2.5508 5.6484-5.6484l0.003906-64.945c1.1484-0.19922 2.0508-1.1992 2.0508-2.3984v-15.453c0-2.1992-1.8008-4-4.0508-4zm-2.8516 86.852c0 0.44922-0.35156 0.80078-0.80078 0.80078l-47.898-0.003906c-0.44922 0-0.80078-0.35156-0.80078-0.80078v-11.398h43.148l0.003906-45.449h-43.152v-8.8984h49.5zm-49.348-13.801v-40.602h40.551v40.551h-40.551zm51.348-68.199v12.148h-53.547v-12.148z"/>
 </g>
</svg>
