<?xml version="1.0" encoding="UTF-8"?>
<svg width="100pt" height="100pt" version="1.1" viewBox="0 0 100 100" xmlns="http://www.w3.org/2000/svg">
 <g>
  <path d="m39.238 71.387c-1.1367 0.87891-2.6133 1.3828-4.0625 1.3828-3.6445 0-6.6133-2.918-6.6133-6.5117 0-3.6484 2.7656-6.5117 6.3008-6.5117 1.3125 0 2.1367 0.38672 3.1992 1.0977 0.75781 0.50391 1.7852 0.30469 2.2891-0.46094 0.50781-0.75781 0.30469-1.7812-0.45703-2.2891-1.2812-0.85938-2.7852-1.6523-5.0391-1.6523-5.3867 0-9.6055 4.3125-9.6055 9.8164 0 5.4141 4.4492 9.8164 9.918 9.8164 2.1953 0 4.3555-0.74219 6.082-2.0742 0.71875-0.55469 0.85547-1.5859 0.29688-2.3164-0.54297-0.71875-1.5781-0.85547-2.3086-0.29688z"/>
  <path d="m74.957 66.258c0-5.5-4.2109-9.8164-9.6055-9.8164-2.2539 0-3.7539 0.79297-5.0312 1.6523-0.75781 0.50781-0.96094 1.5391-0.45703 2.2891 0.50391 0.75781 1.5391 0.96094 2.2891 0.46094 1.0664-0.71875 1.8828-1.0977 3.2031-1.0977 3.5312 0 6.293 2.8594 6.293 6.5078 0 3.5898-2.9609 6.5156-6.6133 6.5156-1.4492 0-2.9258-0.50391-4.0625-1.3828-0.73047-0.55859-1.7617-0.42188-2.3164 0.29688-0.55469 0.72656-0.41797 1.7578 0.29688 2.3164 1.7305 1.3281 3.8945 2.0742 6.0898 2.0742 5.4648 0 9.9141-4.4023 9.9141-9.8164z"/>
  <path d="m37.48 66.082c0 0.91016 0.74219 1.6523 1.6523 1.6523h19.836c0.90625 0 1.6523-0.74219 1.6523-1.6523 0-0.91016-0.74609-1.6523-1.6523-1.6523h-19.836c-0.91016 0-1.6523 0.74219-1.6523 1.6523z"/>
  <path d="m65.582 54.559c0.31641 0.007812 0.61328 0.074218 0.92188 0.10938-2.9766-2.4375-5.4297-5.9531-7.1133-9.7578-2.957 3.1055-5.3594 6.3984-7.0508 9.6016h13.242z"/>
  <path d="m74.906 54.695c8.1602 0 14.793-12.613 14.793-20.855 0-8.1602-6.6367-14.801-14.793-14.801-8.1641 0-14.801 6.6367-14.801 14.801 0 8.2344 6.6328 20.855 14.801 20.855z"/>
  <path d="m90.398 44.934c-3.082 6.957-8.6719 13.066-15.496 13.066-0.57812 0-1.1289-0.09375-1.6836-0.1875 2.0898 2.0898 3.3828 5.0117 3.3828 8.3164 0 6.2109-4.9023 11.254-11.035 11.543v-0.019531h-6.082c4.4023 2.2734 9.7266 3.3047 15.402 3.3047h0.015625c13.961 0 25.309-7.5078 25.309-17.254 0.007812-5.6016-3.7578-12.496-9.8125-18.77z"/>
  <path d="m32.523 77.668c-6.125-0.28516-11.031-5.332-11.031-11.539 0-3.2383 1.2344-6.1133 3.2383-8.1953-6.5703-0.34375-11.938-6.2695-14.93-13.023-6.0391 6.3438-9.8008 13.449-9.8008 19.059 0 4.8477 2.7188 9.1445 7.6484 12.477 4.7422 3.207 11.004 4.5156 17.652 4.5156h0.003907c5.6055 0 10.773-1.2266 14.973-3.3047h-7.7695v0.015625z"/>
  <path d="m33.914 54.512h14.043c-1.6953-3.1914-4.1367-6.4609-7.1406-9.582-1.6445 3.7148-4.0195 7.1562-6.9023 9.582z"/>
  <path d="m25.316 54.695c8.1641 0 14.793-12.613 14.793-20.855 0-8.1602-6.6328-14.801-14.793-14.801s-14.801 6.6367-14.801 14.801c0.007813 8.2344 6.6367 20.855 14.801 20.855z"/>
 </g>
</svg>
