<?xml version="1.0" encoding="utf-8"?>
<!-- Generator: Adobe Illustrator 21.1.0, SVG Export Plug-In . SVG Version: 6.00 Build 0)  -->
<svg version="1.1" id="Layer_1" xmlns="http://www.w3.org/2000/svg" xmlns:xlink="http://www.w3.org/1999/xlink" x="0px" y="0px"
	 viewBox="0 0 100 100" style="enable-background:new 0 0 100 100;" xml:space="preserve">
<g>
	<path d="M86.6,6.5c-1.8-1.6-4-2.8-5.8-3.8c-0.2-0.1-0.4-0.2-0.7-0.4c-1.1-0.7-2.6-1.5-4-1.5c-0.7,0-1.4,0.2-1.9,0.6
		c-1.5,1.1-2.4,2.6-2.3,4c0.1,1.3,1,2.5,2.5,3.2C74.9,8.9,75.5,9,76,9c0.8,0,1.6-0.3,2.2-0.5c0.5-0.2,1-0.4,1.5-0.4
		c1.4,0,2.9,1.7,4.2,4.7c1.8,4.1-0.2,9-2,13.4c-0.4,1-0.8,2-1.2,3c-1.5,4.2-3.1,8.4-4.6,12.5c-1.2,0.5-2,1.6-2.2,2.9
		c-1.4,8.8-5.9,9.5-7.2,9.5c-0.1,0-0.2,0-0.2,0l-0.3,0c-2.1-0.1-4-1.5-5.4-4.4l-0.4-0.9c-0.9-2.1-1.3-4.1-1.3-4.3
		c-0.2-1.1-0.8-2-1.7-2.6c-0.1-0.3-0.2-0.5-0.3-0.8c-2.2-6-5.1-14-7.7-22.1c-1.2-3.7-0.2-7.1,2.7-9.8c0.7-0.7,1.5-1.2,2.3-1.1
		c0.3,0.1,0.6,0.2,0.9,0.3c0.5,0.3,1.2,0.5,2,0.6h0.2c2.3,0,4.7-1.5,4.7-4.1c0-1.1-0.4-2.2-1.1-2.9C60.3,1.3,59.3,0.9,58,1
		c-1.1,0.1-2.1,0.5-3,0.9c-0.6,0.2-1.1,0.4-1.7,0.6c-3.3,0.9-6.1,3.1-7.8,6.3c-2,3.7-2.5,8.2-1.2,12.3c2.3,7.2,4.8,14.8,7.4,22.6
		c-0.3,0.6-0.3,1.4-0.2,2.1c0.3,2.1,1,4.1,1.9,6.1c1.4,3.2,3.5,6.3,6.6,8.1c1.4,0.8,2.7,1.3,4.2,1.5c0,1.3,0,2.7,0,4
		c0,6.6,0.1,12.9-2.3,18.5c-1.6,3.8-4.3,6.5-8.1,8.1c-5.8,2.3-13.9,1.9-21.2-1.2C28.4,89,21,84.9,17.7,77.6
		c-2.8-6.4,0-13.5,3.1-20.3c1.7-3.8,3.4-7.7,4.5-12c6.2-1.1,10.8-6.5,10.8-13c0-7.3-5.9-13.2-13.2-13.2c-7.3,0-13.2,5.9-13.2,13.2
		c0,6.1,4.1,11.2,9.7,12.7c-0.9,3.1-2.2,6.3-3.8,9.8c-3.5,7.6-6.9,16.4-3.1,25c3,6.8,9.3,12.5,17.8,16.1c5,2.1,10.2,3.2,15.1,3.2
		c3.8,0,7.4-0.6,10.5-1.9c5.2-2.1,9.1-6,11.2-11.2c2.8-6.7,2.8-13.8,2.7-20.7c0-1.4,0-2.8,0-4.1c3-0.4,5.8-2.8,7.6-5
		c2.4-3,3.6-6.8,4.2-10.5c0.1-0.5,0.1-1.1-0.1-1.6c0.3-0.8,0.5-1.7,0.8-2.5c1-3,2.1-6.1,3.2-9.1c1.2-3.5,2.5-7.1,3.7-10.7
		c0.6-1.6,0.9-3.6,1-5.5C90.4,12.2,89.2,8.7,86.6,6.5L86.6,6.5z M14.5,32.4c0-4.7,3.8-8.4,8.4-8.4s8.4,3.8,8.4,8.4
		c0,3.5-2.1,6.5-5.1,7.8c-1,0.4-2.1,0.7-3.3,0.7c-0.9,0-1.7-0.1-2.5-0.4C17,39.4,14.5,36.2,14.5,32.4z"/>
	<path d="M28.4,32.5c0,3-2.4,5.4-5.4,5.4s-5.4-2.4-5.4-5.4s2.4-5.4,5.4-5.4S28.4,29.5,28.4,32.5"/>
</g>
</svg>
