<svg xmlns="http://www.w3.org/2000/svg" width="38.68421050980476" height="38.68421050980476" style=""><rect id="backgroundrect" width="100%" height="100%" x="0" y="0" fill="none" stroke="none" class="" style=""/><g class="currentLayer" style=""><title>Layer 1</title><path d="M7.293842036247254,31.236842393875122 l1.6870000000000007,-6.163 c-1.041,-1.804 -1.588,-3.849 -1.5870000000000002,-5.946 c0.003000000000000005,-6.556 5.338,-11.891 11.893,-11.891 c3.181,0.001000000000000001 6.167,1.24 8.413,3.488 c2.245,2.248 3.481,5.236 3.48,8.414 c-0.003000000000000005,6.557 -5.338,11.892 -11.893,11.892 c-1.99,-0.001000000000000001 -3.951,-0.5 -5.6880000000000015,-1.448 l-6.305,1.6540000000000008 zm6.597,-3.807 c1.6760000000000006,0.995 3.276,1.5910000000000002 5.392,1.592 c5.448,0 9.886,-4.434 9.889,-9.885 c0.002000000000000002,-5.462 -4.415,-9.89 -9.881,-9.892 c-5.452,0 -9.887,4.434 -9.889,9.884 c-0.001000000000000001,2.225 0.6510000000000007,3.891 1.746,5.634 l-0.999,3.648 l3.742,-0.981 zm11.387,-5.464 c-0.07400000000000002,-0.12400000000000007 -0.272,-0.1980000000000002 -0.5700000000000005,-0.3470000000000004 c-0.29700000000000026,-0.14900000000000013 -1.758,-0.8680000000000005 -2.031,-0.9670000000000005 c-0.272,-0.09900000000000014 -0.47000000000000025,-0.14900000000000013 -0.6690000000000008,0.14900000000000013 c-0.1980000000000002,0.29700000000000026 -0.7680000000000007,0.9670000000000005 -0.9410000000000005,1.165 c-0.17300000000000001,0.1980000000000002 -0.3470000000000004,0.22300000000000017 -0.6440000000000007,0.07400000000000002 c-0.29700000000000026,-0.14900000000000013 -1.255,-0.462 -2.39,-1.475 c-0.8830000000000007,-0.788 -1.48,-1.7610000000000001 -1.653,-2.059 c-0.17300000000000001,-0.29700000000000026 -0.018000000000000016,-0.458 0.13,-0.6060000000000005 c0.134,-0.133 0.29700000000000026,-0.3470000000000004 0.44600000000000034,-0.521 c0.15100000000000013,-0.17200000000000001 0.2,-0.29600000000000026 0.30000000000000027,-0.4950000000000003 c0.09900000000000014,-0.1980000000000002 0.05000000000000005,-0.3720000000000003 -0.025000000000000026,-0.521 c-0.07500000000000002,-0.14800000000000013 -0.6690000000000008,-1.6110000000000002 -0.916,-2.206 c-0.24200000000000013,-0.5790000000000005 -0.48700000000000027,-0.501 -0.6690000000000008,-0.51 l-0.5700000000000005,-0.010000000000000009 c-0.1980000000000002,0 -0.52,0.07400000000000002 -0.792,0.3720000000000003 s-1.04,1.016 -1.04,2.479 s1.065,2.8760000000000003 1.213,3.074 c0.14900000000000013,0.1980000000000002 2.095,3.2 5.076,4.487 c0.7090000000000005,0.30600000000000027 1.263,0.48900000000000027 1.6940000000000008,0.6260000000000006 c0.7120000000000005,0.2260000000000002 1.36,0.19400000000000017 1.872,0.1180000000000001 c0.5710000000000005,-0.0850000000000001 1.758,-0.7190000000000005 2.006,-1.413 c0.24800000000000014,-0.6950000000000008 0.24800000000000014,-1.29 0.17300000000000001,-1.4140000000000001 z" id="svg_1" class=""/></g></svg>